<?xml version="1.0" encoding="UTF-8"?>
<svg version="1.1" xmlns="http://www.w3.org/2000/svg" width="696" height="309">
<path d="M0 0 C229.68 0 459.36 0 696 0 C696 101.97 696 203.94 696 309 C466.32 309 236.64 309 0 309 C0 207.03 0 105.06 0 0 Z " fill="#FEFDFD" transform="translate(0,0)"/>
<path d="M0 0 C8.19471085 6.0555293 11.97898577 15.42398737 13.66796875 25.2421875 C14.21846181 29.81451813 14.50661153 34.39843066 14.75390625 38.99609375 C14.88418371 42.04873597 14.88418371 42.04873597 16 45 C16.25736763 48.5161878 16.23143719 52.03788727 16.25 55.5625 C16.270625 56.51447266 16.29125 57.46644531 16.3125 58.44726562 C16.36854471 68.73847577 14.23663445 77.41207262 7 85 C-1.03152394 91.22852877 -8.07238098 91.68578947 -18 91 C-24.74532347 89.85981038 -30.20950602 86.90562102 -36.08984375 83.53125 C-39.12593795 81.93373466 -42.14498082 80.77552428 -45.375 79.625 C-57.65676768 75.02481353 -67.88113905 68.66315587 -74.1484375 56.83203125 C-76.99158598 50.08933507 -76.53689665 44.89148815 -74.0625 38.1875 C-69.34759872 27.59221622 -61.47711749 21.22561864 -52 15 C-50.6578563 14.01185625 -49.32400533 13.01231796 -48 12 C-34.12940641 1.56216901 -17.16409452 -10.56251971 0 0 Z " fill="#731A7D" transform="translate(183,25)"/>
<path d="M0 0 C8.19471085 6.0555293 11.97898577 15.42398737 13.66796875 25.2421875 C14.21846181 29.81451813 14.50661153 34.39843066 14.75390625 38.99609375 C14.88418371 42.04873597 14.88418371 42.04873597 16 45 C16.25736763 48.5161878 16.23143719 52.03788727 16.25 55.5625 C16.270625 56.51447266 16.29125 57.46644531 16.3125 58.44726562 C16.36854471 68.73847577 14.23663445 77.41207262 7 85 C-1.03152394 91.22852877 -8.07238098 91.68578947 -18 91 C-25.77736304 89.68536051 -32.23451853 85.87988474 -39 82 C-39.69867188 81.68160156 -40.39734375 81.36320312 -41.1171875 81.03515625 C-43.33612699 79.81519989 -44.62668219 78.43486365 -46.25 76.5 C-46.77078125 75.8915625 -47.2915625 75.283125 -47.828125 74.65625 C-49 73 -49 73 -49 71 C-49.66 71 -50.32 71 -51 71 C-53.94397288 63.2370239 -54.34937193 56.25552919 -54 48 C-51 49 -51 49 -49.859375 50.85546875 C-49.49328125 51.62503906 -49.1271875 52.39460938 -48.75 53.1875 C-44.77618159 60.60607815 -39.01107609 64.78484523 -31.3125 68.078125 C-27.20180558 69.22213901 -23.37749014 69.54579498 -19.125 69.625 C-18.39941895 69.64804199 -17.67383789 69.67108398 -16.92626953 69.69482422 C-12.94215349 69.63662823 -11.1689187 69.13678621 -8.04296875 66.60546875 C-6.18797549 64.23973165 -5.32673728 62.94063551 -5 60 C-4.34 60 -3.68 60 -3 60 C-2.12489617 54.52140877 -1.70975966 49.10142201 -1.4375 43.5625 C-1.37272461 42.32209961 -1.37272461 42.32209961 -1.30664062 41.05664062 C-1.20161967 39.03790451 -1.10041441 37.01897049 -1 35 C-1.66 35 -2.32 35 -3 35 C-4.49821059 31.62902617 -5 29.79557881 -5 26 C-5.99 25.67 -6.98 25.34 -8 25 C-8.144375 24.360625 -8.28875 23.72125 -8.4375 23.0625 C-8.80104993 20.79688294 -8.80104993 20.79688294 -11.0625 19.75 C-11.701875 19.5025 -12.34125 19.255 -13 19 C-13 18.34 -13 17.68 -13 17 C-13.515625 16.9175 -14.03125 16.835 -14.5625 16.75 C-17 16 -17 16 -20.3125 14 C-27.75649507 9.68373395 -36.66280954 10.89592966 -45 11 C-33.73980196 -1.34989463 -15.39430693 -9.47341965 0 0 Z " fill="#0D7FBD" transform="translate(183,25)"/>
<path d="M0 0 C1.11503906 -0.00708984 2.23007812 -0.01417969 3.37890625 -0.02148438 C11.42552967 0.0401211 18.55778378 0.27873048 24.58398438 6.01708984 C27.57570224 9.81911986 27.60092192 13.31197213 27.5390625 18.01171875 C27.54384613 18.81736771 27.54862976 19.62301666 27.55355835 20.45307922 C27.5569454 22.14655524 27.54782674 23.84009771 27.52685547 25.53344727 C27.49996283 28.12858674 27.52669292 30.71944337 27.55859375 33.31445312 C27.55529149 34.96355121 27.54888906 36.61264663 27.5390625 38.26171875 C27.54918365 39.0367424 27.55930481 39.81176605 27.56973267 40.61027527 C27.52197266 42.7956543 27.52197266 42.7956543 26.875 46.4375 C22.22512232 50.28635644 17.74098239 50.54817891 11.875 50.4375 C11.875 49.7775 11.875 49.1175 11.875 48.4375 C11.22789062 48.75976562 10.58078125 49.08203125 9.9140625 49.4140625 C5.95893045 50.74599643 2.39756039 50.82114435 -1.75 50.8125 C-2.94834473 50.81008301 -2.94834473 50.81008301 -4.17089844 50.80761719 C-13.10534272 50.6233646 -21.1598769 48.24176925 -28.125 42.4375 C-33.7319544 35.89083257 -35.61334206 30.05875168 -35.43359375 21.44140625 C-34.81763579 15.44556233 -32.35558533 11.33610649 -28.0625 7.1875 C-19.61587348 0.76974872 -10.30378537 -0.18592395 0 0 Z " fill="#DF1D1E" transform="translate(371.125,52.5625)"/>
<path d="M0 0 C1.05509766 -0.01998047 2.11019531 -0.03996094 3.19726562 -0.06054688 C10.87508557 -0.05582206 19.38030105 0.67770487 25.34399414 6.0390625 C27.15742322 9.60851296 26.99060448 13.12130386 26.9609375 17.03515625 C26.96380768 17.86583115 26.96667786 18.69650604 26.96963501 19.55235291 C26.97167297 21.30484704 26.96616181 23.05736406 26.95361328 24.80981445 C26.93753493 27.4941681 26.95348087 30.1770208 26.97265625 32.86132812 C26.97067417 34.56510749 26.96683122 36.26888592 26.9609375 37.97265625 C26.97004654 39.17741356 26.97004654 39.17741356 26.9793396 40.4065094 C26.9097242 45.91046327 26.9097242 45.91046327 25.23632812 48.45043945 C22.46816844 50.08283 19.84381999 49.67594068 16.6875 49.5625 C12.41544946 49.42644744 8.72839314 49.52833114 4.5625 50.4375 C-6.45625561 51.28011072 -18.16441488 50.39073573 -26.85546875 42.98046875 C-31.401884 38.54631067 -34.11589175 34.56757097 -34.7734375 28.16796875 C-34.92005514 14.86974902 -34.92005514 14.86974902 -30.4375 9.4375 C-22.02239859 0.96422969 -11.41970086 -0.0764557 0 0 Z " fill="#DD1A1B" transform="translate(251.4375,52.5625)"/>
<path d="M0 0 C6.6 0 13.2 0 20 0 C19.01 1.65 18.02 3.3 17 5 C16.548369 7.36981889 16.548369 7.36981889 16.59594727 9.83105469 C16.57692101 11.22840851 16.57692101 11.22840851 16.55751038 12.6539917 C16.56044601 13.64989319 16.56338165 14.64579468 16.56640625 15.671875 C16.55854347 17.22736053 16.55854347 17.22736053 16.55052185 18.81427002 C16.54410645 21.00637926 16.54543238 23.19852294 16.55395508 25.390625 C16.56243537 28.72459215 16.53374347 32.05682828 16.50195312 35.390625 C16.50034009 37.52604116 16.5009206 39.66146032 16.50390625 41.796875 C16.49267227 42.78467957 16.48143829 43.77248413 16.46986389 44.79022217 C16.53210427 51.05461752 17.30485857 56.75946814 21 62 C24.75816034 64.41353907 28.64680274 64.81203872 33 64 C37.86463896 60.93707917 39.66031431 58.50337662 41 53 C41.28168524 49.36162854 41.28034478 45.73769441 41.265625 42.08984375 C41.26753845 41.04478165 41.2694519 39.99971954 41.27142334 38.92298889 C41.27278078 36.7200598 41.26911522 34.51712258 41.26074219 32.31420898 C41.25002583 28.94561799 41.2606582 25.57755898 41.2734375 22.20898438 C41.27211604 20.06510299 41.26955392 17.92122194 41.265625 15.77734375 C41.26967346 14.7720311 41.27372192 13.76671844 41.27789307 12.73094177 C41.27158875 11.78968948 41.26528442 10.84843719 41.25878906 9.87866211 C41.25719788 9.05514755 41.25560669 8.231633 41.25396729 7.38316345 C41.05324083 4.4783994 41.05324083 4.4783994 39 0 C45.27 0 51.54 0 58 0 C57.34 1.65 56.68 3.3 56 5 C55.70555016 7.36881568 55.70555016 7.36881568 55.74462891 9.81518555 C55.73419052 11.20769783 55.73419052 11.20769783 55.72354126 12.62834167 C55.72453827 13.62110611 55.72553528 14.61387054 55.7265625 15.63671875 C55.70626485 17.76237497 55.68541391 19.88802597 55.6640625 22.01367188 C55.64152753 25.34664319 55.62501426 28.67940733 55.61914062 32.01245117 C55.609556 35.24175011 55.57569929 38.47012856 55.5390625 41.69921875 C55.54410797 42.68186203 55.54915344 43.66450531 55.55435181 44.67692566 C55.44224642 52.65679493 53.75890983 59.570004 48.6875 65.875 C40.18230893 72.6000348 32.72268699 73.85139862 22 73 C15.13071258 71.52867923 11.06425981 68.81657274 7.15625 63 C6.7746875 62.34 6.393125 61.68 6 61 C5.6390625 60.401875 5.278125 59.80375 4.90625 59.1875 C2.29741029 52.89030071 2.79399026 45.51327319 2.68359375 38.81640625 C2.66281265 37.76090073 2.64203156 36.7053952 2.62062073 35.61790466 C2.55555152 32.2661655 2.49643948 28.914352 2.4375 25.5625 C2.39427419 23.28189354 2.35065864 21.00129443 2.30664062 18.72070312 C2.19991416 13.14721262 2.09807078 7.57364917 2 2 C1.34 2 0.68 2 0 2 C0 1.34 0 0.68 0 0 Z " fill="#BA0528" transform="translate(245,190)"/>
<path d="M0 0 C6.6 0 13.2 0 20 0 C19.01 1.65 18.02 3.3 17 5 C16.548369 7.36981889 16.548369 7.36981889 16.59594727 9.83105469 C16.57692101 11.22840851 16.57692101 11.22840851 16.55751038 12.6539917 C16.56044601 13.64989319 16.56338165 14.64579468 16.56640625 15.671875 C16.55854347 17.22736053 16.55854347 17.22736053 16.55052185 18.81427002 C16.54410645 21.00637926 16.54543238 23.19852294 16.55395508 25.390625 C16.56243537 28.72459215 16.53374347 32.05682828 16.50195312 35.390625 C16.50034009 37.52604116 16.5009206 39.66146032 16.50390625 41.796875 C16.49267227 42.78467957 16.48143829 43.77248413 16.46986389 44.79022217 C16.53317554 51.16243954 17.47209086 56.571958 21 62 C24.71387818 64.47591878 27.69582561 64.53907468 32 64 C36.21284924 62.22124143 37.97423939 60.05152123 40 56 C40.95647344 53.13057968 41.13159304 51.31271761 41.14526367 48.33251953 C41.15164352 47.38788849 41.15802338 46.44325745 41.16459656 45.47000122 C41.16570938 44.45122894 41.1668222 43.43245667 41.16796875 42.3828125 C41.17129715 41.33350555 41.17462555 40.28419861 41.17805481 39.20309448 C41.18311969 36.98224323 41.18546327 34.76138436 41.18530273 32.54052734 C41.18748689 29.14537991 41.20564102 25.75055858 41.22460938 22.35546875 C41.22754385 20.19791778 41.22952828 18.04036526 41.23046875 15.8828125 C41.23765427 14.86808868 41.24483978 13.85336487 41.25224304 12.80789185 C41.2476281 11.3814888 41.2476281 11.3814888 41.24291992 9.92626953 C41.24434494 9.09370636 41.24576996 8.26114319 41.24723816 7.40335083 C41.05770279 4.48105623 41.05770279 4.48105623 39 0 C45.27 0 51.54 0 58 0 C57.34 1.32 56.68 2.64 56 4 C55.70284924 6.3100232 55.70284924 6.3100232 55.74462891 8.79345703 C55.73419052 10.21611374 55.73419052 10.21611374 55.72354126 11.66751099 C55.72453827 12.68731049 55.72553528 13.70710999 55.7265625 14.7578125 C55.70626188 16.93229671 55.68541089 19.10677583 55.6640625 21.28125 C55.64153473 24.69763471 55.62501924 28.11381806 55.61914062 31.53027344 C55.60955703 34.83565436 55.57569666 38.14013551 55.5390625 41.4453125 C55.54410797 42.45296661 55.54915344 43.46062073 55.55435181 44.49880981 C55.44392481 52.55276946 53.77939175 59.44855499 48.75 65.875 C40.3845654 72.33919946 32.43077839 73.73739436 22 73 C16.30422247 71.79839909 12.08408224 69.17690229 8 65 C4.40442811 59.33668709 2.90527688 53.90256784 2.82641602 47.19726562 C2.81292618 46.2728064 2.79943634 45.34834717 2.78553772 44.39587402 C2.77509933 43.4092981 2.76466095 42.42272217 2.75390625 41.40625 C2.72098043 39.30338106 2.68776858 37.20051658 2.65429688 35.09765625 C2.6068322 31.79283583 2.56235821 28.48803511 2.52319336 25.18310547 C2.48346734 21.9864691 2.43194034 18.79018941 2.37890625 15.59375 C2.3704921 14.60717407 2.36207794 13.62059814 2.35340881 12.60412598 C2.33676682 11.67966675 2.32012482 10.75520752 2.30297852 9.80273438 C2.29267105 8.99396851 2.28236359 8.18520264 2.27174377 7.35192871 C2.04353351 4.47477716 2.04353351 4.47477716 0 0 Z " fill="#BA082A" transform="translate(454,190)"/>
<path d="M0 0 C3.6852919 3.2382237 5.93809092 7.35674996 6.73104858 12.23693848 C6.8414846 14.49175597 6.83409623 16.71212691 6.7734375 18.96875 C6.76777771 19.77868408 6.76211792 20.58861816 6.75628662 21.4230957 C6.7341027 23.98061167 6.68394453 26.53666591 6.6328125 29.09375 C6.61272407 30.83982335 6.59447743 32.58591892 6.578125 34.33203125 C6.53771753 38.58693771 6.45940285 42.83873058 6.3828125 47.09375 C1.1028125 47.09375 -4.1771875 47.09375 -9.6171875 47.09375 C-9.64296875 44.52980469 -9.66875 41.96585938 -9.6953125 39.32421875 C-9.73372182 36.84192915 -9.7788854 34.35984807 -9.82470703 31.87768555 C-9.85293781 30.15220082 -9.8741419 28.42658626 -9.88818359 26.70092773 C-9.90958492 24.22051426 -9.95621667 21.7416651 -10.0078125 19.26171875 C-10.00904114 18.48974655 -10.01026978 17.71777435 -10.01153564 16.92240906 C-10.11961383 12.60346772 -10.11961383 12.60346772 -12.44116211 9.10595703 C-15.64987642 7.61338107 -18.40977662 7.73526121 -21.9296875 7.78125 C-23.20457031 7.78511719 -24.47945313 7.78898437 -25.79296875 7.79296875 C-30.21206456 8.01324864 -30.21206456 8.01324864 -36.6171875 10.09375 C-36.6171875 22.30375 -36.6171875 34.51375 -36.6171875 47.09375 C-41.8971875 47.09375 -47.1771875 47.09375 -52.6171875 47.09375 C-52.71594713 40.45520389 -52.78860507 33.81708383 -52.83691406 27.17797852 C-52.85704916 24.91878818 -52.88435939 22.65965008 -52.91894531 20.40063477 C-52.96737912 17.15628179 -52.99013726 13.91261683 -53.0078125 10.66796875 C-53.03878021 9.14909309 -53.03878021 9.14909309 -53.07037354 7.59953308 C-53.07067566 6.65878433 -53.07097778 5.71803558 -53.07128906 4.7487793 C-53.08017151 3.92049118 -53.08905396 3.09220306 -53.09820557 2.23881531 C-52.6171875 0.09375 -52.6171875 0.09375 -50.78924561 -1.68107605 C-47.71232279 -3.41664918 -45.30844947 -3.16031599 -41.8046875 -3.03125 C-3.4650617 -1.77695472 -3.4650617 -1.77695472 0 0 Z " fill="#DB1E1F" transform="translate(455.6171875,55.90625)"/>
<path d="M0 0 C2.9257215 4.38858226 2.32949603 8.39910572 2.3125 13.5625 C2.32861328 14.51447266 2.34472656 15.46644531 2.36132812 16.44726562 C2.36832331 26.72318817 0.22505447 35.42421473 -7 43 C-15.03152394 49.22852877 -22.07238098 49.68578947 -32 49 C-39.77736304 47.68536051 -46.23451853 43.87988474 -53 40 C-54.04800781 39.52240234 -54.04800781 39.52240234 -55.1171875 39.03515625 C-57.33612699 37.81519989 -58.62668219 36.43486365 -60.25 34.5 C-61.03117188 33.58734375 -61.03117188 33.58734375 -61.828125 32.65625 C-63 31 -63 31 -63 29 C-63.66 29 -64.32 29 -65 29 C-67.94397288 21.2370239 -68.34937193 14.25552919 -68 6 C-65 7 -65 7 -63.859375 8.85546875 C-63.31023437 10.00982422 -63.31023437 10.00982422 -62.75 11.1875 C-58.77376302 18.6105933 -53.00130865 22.79668362 -45.29296875 26.08203125 C-36.32592632 28.58174059 -25.59001607 28.43005033 -17.140625 24.3203125 C-8.71977205 19.12642874 -3.47876755 12.46630991 -0.6875 2.9375 C-0.460625 1.968125 -0.23375 0.99875 0 0 Z " fill="#1BACA3" transform="translate(197,67)"/>
<path d="M0 0 C1.670625 0.061875 1.670625 0.061875 3.375 0.125 C8.48202063 1.35772912 12.816974 3.82696016 17 7 C17 7.66 17 8.32 17 9 C16.21238281 9.01417969 15.42476562 9.02835938 14.61328125 9.04296875 C4.89236971 9.46861813 -4.22649353 11.29809703 -12.0625 17.375 C-14.35028822 20.47458404 -16.19730589 23.59491112 -18 27 C-18.66 27 -19.32 27 -20 27 C-20 28.32 -20 29.64 -20 31 C-20.66 31 -21.32 31 -22 31 C-22 32.98 -22 34.96 -22 37 C-22.66 37 -23.32 37 -24 37 C-24 41.62 -24 46.24 -24 51 C-23.34 51 -22.68 51 -22 51 C-20.68373308 54.61973402 -20 57.09567131 -20 61 C-19.34 61 -18.68 61 -18 61 C-16.2734375 62.75 -16.2734375 62.75 -14.375 65 C-13.74335938 65.7425 -13.11171875 66.485 -12.4609375 67.25 C-11.73777344 68.11625 -11.73777344 68.11625 -11 69 C-14.75424951 70.2514165 -16.16827507 69.23706443 -19.59814453 67.54907227 C-20.66331299 66.99884399 -20.66331299 66.99884399 -21.75 66.4375 C-22.47429199 66.06616943 -23.19858398 65.69483887 -23.94482422 65.31225586 C-33.64524088 60.21827432 -39.8978619 54.05031387 -44.375 43.875 C-46.18005284 35.57175696 -43.99477976 29.3175405 -40 22 C-34.7917913 14.78232496 -28.42043247 9.77753871 -21 5 C-19.948125 4.21625 -18.89625 3.4325 -17.8125 2.625 C-12.3570649 -0.52702917 -6.14121759 -0.24467002 0 0 Z " fill="#DF1B1C" transform="translate(152,35)"/>
<path d="M0 0 C0.74185547 0.00064453 1.48371094 0.00128906 2.24804688 0.00195312 C6.09474828 0.03278154 9.69874311 0.26206513 13.4375 1.1875 C13.4375 4.4875 13.4375 7.7875 13.4375 11.1875 C12.674375 10.878125 11.91125 10.56875 11.125 10.25 C5.43128312 7.99899565 0.52740375 7.58295481 -5.5625 8.1875 C-8.89033723 9.36427203 -8.89033723 9.36427203 -10.5625 12.1875 C-11.2778133 15.35531605 -11.42556021 18.0500223 -10.5625 21.1875 C-6.94717646 26.58946599 -2.9706021 28.88129806 2.8125 31.625 C15.93471278 38.18192557 15.93471278 38.18192557 19.4375 45.1875 C20.64549827 59.45913669 20.64549827 59.45913669 17.5 64.3125 C12.21908296 70.14851343 3.77062857 73.84920753 -3.96484375 74.453125 C-7.50485898 74.43747852 -11.02662431 74.3601823 -14.5625 74.1875 C-15.34109375 74.15398437 -16.1196875 74.12046875 -16.921875 74.0859375 C-18.75 73.8125 -18.75 73.8125 -21.5625 72.1875 C-23.71533959 67.82894405 -25.12664893 63.87994679 -23.5625 59.1875 C-22.76585937 59.71150391 -22.76585937 59.71150391 -21.953125 60.24609375 C-21.24671875 60.70113281 -20.5403125 61.15617187 -19.8125 61.625 C-19.11640625 62.07746094 -18.4203125 62.52992188 -17.703125 62.99609375 C-13.02433468 65.600165 -7.80683004 65.95998724 -2.5625 65.1875 C2.14612835 63.18212166 5.47412792 61.01968275 7.4375 56.1875 C8.02100505 53.73040625 8.02100505 53.73040625 7.4375 51.1875 C3.26625338 45.97344173 -2.43793404 42.78085111 -8.3125 39.78515625 C-15.64088576 36.03134996 -21.35260019 32.01792823 -24.5625 24.1875 C-25.23625822 19.00112859 -25.22175549 14.55672294 -22.9375 9.8125 C-15.96320849 2.10407254 -10.09998863 -0.16759806 0 0 Z " fill="#BA0729" transform="translate(432.5625,188.8125)"/>
<path d="M0 0 C0 3.63 0 7.26 0 11 C-2.5678125 10.93039063 -2.5678125 10.93039063 -5.1875 10.859375 C-7.45831581 10.82184085 -9.72915058 10.78544247 -12 10.75 C-13.12535156 10.71648438 -14.25070312 10.68296875 -15.41015625 10.6484375 C-22.46129992 10.56596798 -27.02475113 11.16682148 -33 15 C-36.0243734 18.40242007 -36.50042864 21.47073673 -36.26953125 26.01171875 C-35.81460859 29.36759748 -35.04515413 31.27312783 -33 34 C-25.76151422 38.95354563 -17.87183176 38.47434028 -9.4375 38.25 C-7.49520508 38.22292969 -7.49520508 38.22292969 -5.51367188 38.1953125 C-2.34166586 38.14849322 0.82876704 38.08292473 4 38 C3.31286582 43.3419141 2.34629896 45.61954525 -2 49 C-13.98252356 51.8341897 -28.89877442 51.36084825 -40 46 C-45.68775046 42.38800413 -50.32761374 37.64799508 -52 31 C-52.87488811 23.40097186 -53.44739622 15.85448081 -48.5234375 9.5703125 C-48.02070312 9.05210938 -47.51796875 8.53390625 -47 8 C-46.53851562 7.52304687 -46.07703125 7.04609375 -45.6015625 6.5546875 C-33.63378064 -3.59058951 -14.42572019 -2.09828657 0 0 Z " fill="#DE1A1C" transform="translate(573,53)"/>
<path d="M0 0 C14.85 0 29.7 0 45 0 C45 3.63 45 7.26 45 11 C42.525 10.01 42.525 10.01 40 9 C37.30006096 8.64023194 37.30006096 8.64023194 34.48046875 8.5859375 C33.45888672 8.54726562 32.43730469 8.50859375 31.38476562 8.46875 C29.80211914 8.42234375 29.80211914 8.42234375 28.1875 8.375 C27.11306641 8.33632812 26.03863281 8.29765625 24.93164062 8.2578125 C22.28803461 8.16381762 19.64404124 8.08083151 17 8 C17 14.93 17 21.86 17 29 C24.59 29 32.18 29 40 29 C40 32.3 40 35.6 40 39 C39.01 38.34 38.02 37.68 37 37 C34.77868577 36.6349209 34.77868577 36.6349209 32.33203125 36.5859375 C31.43935547 36.54726562 30.54667969 36.50859375 29.62695312 36.46875 C28.69818359 36.4378125 27.76941406 36.406875 26.8125 36.375 C25.87212891 36.33632812 24.93175781 36.29765625 23.96289062 36.2578125 C21.6421229 36.16356813 19.32136252 36.07795975 17 36 C17.09386894 40.32369494 17.20003516 44.64686413 17.31738281 48.9699707 C17.35555952 50.43928862 17.39043182 51.90869639 17.421875 53.37817383 C17.46777289 55.49593114 17.52572372 57.6130759 17.5859375 59.73046875 C17.63306885 61.63928833 17.63306885 61.63928833 17.68115234 63.58666992 C17.87127723 67.36313798 17.87127723 67.36313798 20 72 C14.06 72 8.12 72 2 72 C2.66 70.02 3.32 68.04 4 66 C4.31080473 63.01582195 4.31080473 63.01582195 4.29052734 59.90625 C4.30328705 58.72482422 4.31604675 57.54339844 4.32919312 56.32617188 C4.33141876 55.06353516 4.33364441 53.80089844 4.3359375 52.5 C4.3425943 51.19095703 4.3492511 49.88191406 4.35610962 48.53320312 C4.36804654 45.76949767 4.37179395 43.0059169 4.37060547 40.2421875 C4.37040199 36.71146114 4.39774831 33.18153709 4.43214989 29.65100098 C4.45980395 26.2673223 4.45856856 22.88379015 4.4609375 19.5 C4.47530853 18.23736328 4.48967957 16.97472656 4.50448608 15.67382812 C4.49833282 14.49240234 4.49217957 13.31097656 4.48583984 12.09375 C4.48868988 11.05927734 4.49153992 10.02480469 4.49447632 8.95898438 C4.07925709 5.23061475 4.07925709 5.23061475 0 0 Z " fill="#BB0225" transform="translate(197,190)"/>
<path d="M0 0 C16.17 0 32.34 0 49 0 C48.01 3.63 47.02 7.26 46 11 C44.68 10.34 43.36 9.68 42 9 C39.75866742 8.71306612 37.5055681 8.51033409 35.25 8.375 C34.07953125 8.30023438 32.9090625 8.22546875 31.703125 8.1484375 C30.81109375 8.09945312 29.9190625 8.05046875 29 8 C29.08448869 15.60645463 29.17940506 23.21271901 29.28752708 30.81887341 C29.33741068 34.35097027 29.38374107 37.88303839 29.421875 41.4152832 C29.46590254 45.47886761 29.52552107 49.54209472 29.5859375 53.60546875 C29.59748871 54.8702153 29.60903992 56.13496185 29.62094116 57.43803406 C29.64081085 58.61888077 29.66068054 59.79972748 29.68115234 61.01635742 C29.69447601 62.05338303 29.70779968 63.09040863 29.7215271 64.15885925 C29.91084622 67.45148479 29.91084622 67.45148479 32 72 C25.73 72 19.46 72 13 72 C13.99 70.02 14.98 68.04 16 66 C16.46312655 63.0186108 16.46312655 63.0186108 16.43237305 59.90283203 C16.45216721 58.72206085 16.47196136 57.54128967 16.49235535 56.32473755 C16.49874527 55.06515228 16.50513519 53.80556702 16.51171875 52.5078125 C16.52966995 51.20673553 16.54762115 49.90565857 16.56611633 48.56515503 C16.61344821 45.12277213 16.64336555 41.680454 16.66955566 38.237854 C16.69944672 34.7183351 16.74594743 31.19903899 16.79101562 27.6796875 C16.87685683 20.78658564 16.94428689 13.89340945 17 7 C14.75714582 7.09920968 12.51505816 7.21585079 10.2734375 7.33984375 C8.40051025 7.43446899 8.40051025 7.43446899 6.48974609 7.53100586 C1.67433841 8.17815838 -0.49153557 9.74214017 -4 13 C-3.52140759 11.39566191 -3.04210442 9.79153584 -2.5625 8.1875 C-2.29566406 7.29417969 -2.02882813 6.40085938 -1.75390625 5.48046875 C-1.19612127 3.64526945 -0.60655425 1.81966274 0 0 Z " fill="#BD0127" transform="translate(360,190)"/>
<path d="M0 0 C6.6 0 13.2 0 20 0 C19.01 1.65 18.02 3.3 17 5 C16.54349423 8.39488682 16.54349423 8.39488682 16.59936523 12.1418457 C16.59238617 12.84173615 16.5854071 13.54162659 16.57821655 14.26272583 C16.55828822 16.56720135 16.55874012 18.87122733 16.55859375 21.17578125 C16.54681322 22.78616025 16.53344735 24.39652835 16.51856995 26.00688171 C16.48241127 30.24359297 16.46219582 34.48020782 16.44702148 38.71704102 C16.42218592 45.48696028 16.3822586 52.25666619 16.32512093 59.02638817 C16.30889806 61.38160157 16.30502345 63.73661099 16.30210876 66.09187317 C16.29232234 67.55124247 16.28205743 69.01060867 16.27124023 70.4699707 C16.26696518 71.73396194 16.26269012 72.99795319 16.25828552 74.30024719 C15.75849389 81.45939982 14.2078726 87.84232376 9 93 C4.54797565 96.12692092 0.38061401 98.10954627 -5 99 C-4.59007812 98.39414062 -4.18015625 97.78828125 -3.7578125 97.1640625 C-3.21898437 96.32617188 -2.68015625 95.48828125 -2.125 94.625 C-1.59132813 93.81289063 -1.05765625 93.00078125 -0.5078125 92.1640625 C3.97423888 82.75872153 3.31094489 72.19529778 3.30078125 62.01171875 C3.30467539 60.3788899 3.30901153 58.74606205 3.31376648 57.11323547 C3.32118639 53.71014094 3.32096612 50.30715027 3.31567383 46.90405273 C3.30985206 42.5484517 3.32689541 38.19327218 3.3500185 33.8377409 C3.36475315 30.47395862 3.36562848 27.11027833 3.36250877 23.7464695 C3.36302105 22.14013642 3.36824115 20.53379749 3.37832069 18.92749596 C3.39067759 16.68535163 3.38390124 14.44403565 3.37231445 12.2019043 C3.37294388 10.92856735 3.3735733 9.65523041 3.3742218 8.3433075 C3.18037367 4.51500019 3.18037367 4.51500019 0 0 Z " fill="#BD0228" transform="translate(309,190)"/>
<path d="M0 0 C5.28 0 10.56 0 16 0 C16 22.77 16 45.54 16 69 C10.72 69 5.44 69 0 69 C0 46.23 0 23.46 0 0 Z " fill="#E02021" transform="translate(316,34)"/>
<path d="M0 0 C4.95 0 9.9 0 15 0 C15 2.64 15 5.28 15 8 C19.29 8 23.58 8 28 8 C28 14 28 14 26.82421875 16.359375 C24.39342454 18.54552825 23.03180065 18.4172364 19.8125 18.25 C18.91144531 18.21390625 18.01039063 18.1778125 17.08203125 18.140625 C16.39496094 18.09421875 15.70789063 18.0478125 15 18 C15.13810905 22.47944035 15.28677416 26.95846783 15.4375 31.4375 C15.47681641 32.71689453 15.51613281 33.99628906 15.55664062 35.31445312 C15.61948242 37.13686523 15.61948242 37.13686523 15.68359375 38.99609375 C15.72025146 40.12200928 15.75690918 41.2479248 15.79467773 42.40795898 C15.71218045 44.92853441 15.71218045 44.92853441 17 46 C19.01594582 46.23427778 21.038474 46.41336124 23.0625 46.5625 C24.16722656 46.64628906 25.27195312 46.73007813 26.41015625 46.81640625 C27.26480469 46.87699219 28.11945313 46.93757813 29 47 C29 50.63 29 54.26 29 58 C26.4784979 58.08172936 23.95970083 58.14083373 21.4375 58.1875 C20.73302734 58.21263672 20.02855469 58.23777344 19.30273438 58.26367188 C12.02301325 58.36431318 6.33005937 56.17329291 1 51 C-0.00683096 48.05397535 -0.12185028 45.32830413 -0.11352539 42.23144531 C-0.11344986 41.29077209 -0.11337433 40.35009888 -0.11329651 39.38092041 C-0.10813522 38.37349792 -0.10297394 37.36607544 -0.09765625 36.328125 C-0.0962413 35.29057068 -0.09482635 34.25301636 -0.09336853 33.184021 C-0.08777447 29.87265124 -0.07522303 26.56134929 -0.0625 23.25 C-0.05748423 21.00390723 -0.05292146 18.75781339 -0.04882812 16.51171875 C-0.03780698 11.00778641 -0.02054639 5.5039047 0 0 Z " fill="#E11B1C" transform="translate(467,45)"/>
<path d="M0 0 C4.95 0 9.9 0 15 0 C15 2.64 15 5.28 15 8 C19.29 8 23.58 8 28 8 C27.3902439 14.46341463 27.3902439 14.46341463 25.75 16.71875 C23.47011619 18.38795064 22.1064604 18.30897654 19.3125 18.1875 C18.50425781 18.16042969 17.69601562 18.13335937 16.86328125 18.10546875 C16.24839844 18.07066406 15.63351562 18.03585938 15 18 C15.13810905 22.47944035 15.28677416 26.95846783 15.4375 31.4375 C15.47681641 32.71689453 15.51613281 33.99628906 15.55664062 35.31445312 C15.61948242 37.13686523 15.61948242 37.13686523 15.68359375 38.99609375 C15.72025146 40.12200928 15.75690918 41.2479248 15.79467773 42.40795898 C15.71218045 44.92853441 15.71218045 44.92853441 17 46 C18.84891946 46.23363881 20.70488031 46.41303635 22.5625 46.5625 C24.356875 46.706875 26.15125 46.85125 28 47 C28 50.63 28 54.26 28 58 C9.45101252 58.65211284 9.45101252 58.65211284 2.5625 53 C0.07550426 49.81664545 -0.12376609 47.15488016 -0.11352539 43.25317383 C-0.11344986 42.29240433 -0.11337433 41.33163483 -0.11329651 40.3417511 C-0.10813522 39.30729355 -0.10297394 38.272836 -0.09765625 37.20703125 C-0.0962413 36.14586594 -0.09482635 35.08470062 -0.09336853 33.99137878 C-0.08776606 30.59839065 -0.07521314 27.20546823 -0.0625 23.8125 C-0.05748532 21.51367283 -0.05292236 19.21484462 -0.04882812 16.91601562 C-0.03779583 11.27731838 -0.02052952 5.63867034 0 0 Z " fill="#DF1A1B" transform="translate(284,45)"/>
<path d="M0 0 C4.56975764 3.96045662 8.4174071 7.98084647 9.30859375 14.12890625 C9.69746434 21.47031154 7.62934694 26.3246485 3 32 C-2.22574397 36.57252598 -7.6354334 36.89353039 -14.48828125 36.71875 C-20.60195534 35.46745297 -23.94289531 31.49367626 -28 27 C-30.97478489 24.06624662 -33.44274977 22.17911615 -37.5 20.875 C-41.14873879 20.73686578 -41.14873879 20.73686578 -44.4375 22.9375 C-47.26563431 26.3174654 -47.87594528 27.78890876 -47.51171875 32.0625 C-46.57809415 35.59744505 -44.99028679 37.00647547 -42 39 C-39.1911876 39.63991089 -36.81067644 39.62712862 -34 39 C-31.14842545 37.30252228 -31.14842545 37.30252228 -29 35 C-28 34 -27 33 -26 32 C-25.70645166 35.05290269 -25.56967633 37.95624724 -26 41 C-28.93691885 44.17504741 -31.67765962 45.72545976 -36.015625 46.23828125 C-41.94156563 46.43512194 -45.21483459 45.56541736 -50 42 C-53.48814876 38.33297182 -54.29279901 35.42603649 -54.5 30.5 C-54.30648693 25.58209898 -53.37005911 22.73438983 -50 19 C-45.28152848 14.84325128 -42.49239249 13.61015326 -36.29296875 13.73828125 C-29.39192181 14.52596463 -24.70476469 21.16461472 -20.171875 25.85546875 C-17.10070422 28.88797371 -15.40015979 29.17421002 -11.1875 29.25 C-6.95584497 29.18902514 -4.2421126 28.94737509 -1 26 C2.19549087 21.52631278 2.17773934 18.26084618 1.421875 13.05078125 C1.00415178 10.81481059 1.00415178 10.81481059 0 8 C-1.91666667 6.83333333 -1.91666667 6.83333333 -4 6 C-4.66 5.67 -5.32 5.34 -6 5 C-10.47884596 4.58778763 -14.6311333 4.49411448 -18.875 6.0625 C-21.78508894 8.71581638 -23.21385815 11.49386971 -25 15 C-25.33 15 -25.66 15 -26 15 C-26.90888858 5.38934483 -26.90888858 5.38934483 -24.83984375 2.2265625 C-17.24481356 -4.18356528 -8.59834194 -4.56164667 0 0 Z " fill="#B01128" transform="translate(356,139)"/>
<path d="M0 0 C6.27 0 12.54 0 19 0 C19 0.66 19 1.32 19 2 C18.34 2 17.68 2 17 2 C16.153009 5.68576147 15.86418847 9.10978608 15.83886719 12.88842773 C15.82445587 14.63064857 15.82445587 14.63064857 15.80975342 16.4080658 C15.8033786 18.27695213 15.8033786 18.27695213 15.796875 20.18359375 C15.79117493 21.47185562 15.78547485 22.76011749 15.77960205 24.0874176 C15.76912467 26.80999137 15.76326023 29.53253589 15.75976562 32.25512695 C15.7542774 35.73303518 15.73022913 39.21055263 15.70179367 42.68833828 C15.67862858 46.02008236 15.67671597 49.35177335 15.671875 52.68359375 C15.6595282 53.92749374 15.6471814 55.17139374 15.63446045 56.45298767 C15.63746155 57.61762039 15.64046265 58.78225311 15.64355469 59.98217773 C15.63990906 61.0019017 15.63626343 62.02162567 15.63250732 63.07225037 C15.91930964 66.6694613 15.91930964 66.6694613 19 72 C12.73 72 6.46 72 0 72 C0.66 70.35 1.32 68.7 2 67 C2.30027612 64.0263367 2.30027612 64.0263367 2.25878906 60.8203125 C2.26509338 59.59554199 2.27139771 58.37077148 2.27789307 57.10888672 C2.2738446 55.7942041 2.26979614 54.47952148 2.265625 53.125 C2.26697345 51.75406831 2.26891549 50.38313709 2.27142334 49.01220703 C2.27436613 46.14415925 2.27010429 43.27623635 2.26074219 40.40820312 C2.24934804 36.73969582 2.25591206 33.0714812 2.26788712 29.40298462 C2.27512863 26.57362683 2.27280729 23.74433794 2.26763153 20.91497803 C2.2656565 18.90702117 2.27170975 16.89906159 2.27789307 14.89111328 C2.27158875 13.66634277 2.26528442 12.44157227 2.25878906 11.1796875 C2.25719788 10.10444824 2.25560669 9.02920898 2.25396729 7.92138672 C2.10377901 4.55962325 2.10377901 4.55962325 0 0 Z " fill="#B70426" transform="translate(335,190)"/>
<path d="M0 0 C5.28 0 10.56 0 16 0 C16 16.5 16 33 16 50 C10.72 50 5.44 50 0 50 C0 33.5 0 17 0 0 Z " fill="#DE1E1F" transform="translate(500,53)"/>
<path d="M0 0 C0.99 0.66 1.98 1.32 3 2 C3.34057617 4.52197266 3.34057617 4.52197266 3.29296875 7.6640625 C3.28330078 8.78554687 3.27363281 9.90703125 3.26367188 11.0625 C3.23853516 12.238125 3.21339844 13.41375 3.1875 14.625 C3.16719727 16.40003906 3.16719727 16.40003906 3.14648438 18.2109375 C3.11103916 21.14107539 3.06162769 24.07031459 3 27 C-3.92408024 29.96386488 -12.43428431 30.56673307 -19.65234375 28.08984375 C-23.97339867 25.58733336 -26.47813051 22.85095901 -28 18 C-28.68643437 13.66416773 -28.3519068 10.76246473 -26.5 6.75 C-19.28774036 -1.1834856 -10.10319267 -0.96649007 0 0 Z " fill="#FEF5F4" transform="translate(260,63)"/>
<path d="M0 0 C0.71542969 -0.00773437 1.43085938 -0.01546875 2.16796875 -0.0234375 C5.93975618 -0.00933736 7.66381279 0.10920853 10.875 2.25 C11.21557617 4.77197266 11.21557617 4.77197266 11.16796875 7.9140625 C11.15830078 9.03554687 11.14863281 10.15703125 11.13867188 11.3125 C11.11353516 12.488125 11.08839844 13.66375 11.0625 14.875 C11.04219727 16.65003906 11.04219727 16.65003906 11.02148438 18.4609375 C10.98603916 21.39107539 10.93662769 24.32031459 10.875 27.25 C4.11793894 30.12371729 -4.10868488 30.73680012 -11.125 28.125 C-14.62991458 25.93442839 -17.38220485 24.03369999 -19.125 20.25 C-20.05059994 15.60096393 -20.23224019 11.31049334 -17.9453125 7.0546875 C-12.9435267 0.86076623 -7.77284553 -0.08494913 0 0 Z " fill="#FEF6F6" transform="translate(371.125,62.75)"/>
<path d="M0 0 C1.23556641 0.01740234 1.23556641 0.01740234 2.49609375 0.03515625 C3.32238281 0.04417969 4.14867187 0.05320313 5 0.0625 C5.63808594 0.07410156 6.27617187 0.08570313 6.93359375 0.09765625 C7.01008706 7.0352466 7.06237872 13.9727269 7.09838867 20.91064453 C7.11341153 23.26745671 7.13383571 25.62424123 7.15991211 27.98095703 C7.19658196 31.38190567 7.21338571 34.78248246 7.2265625 38.18359375 C7.24204636 39.22566986 7.25753021 40.26774597 7.27348328 41.34140015 C7.27496118 47.86552643 6.77477278 54.12344929 3.93359375 60.09765625 C2.03203089 61.88554028 0.26252873 62.8555576 -2.06640625 64.09765625 C-2.06640625 64.75765625 -2.06640625 65.41765625 -2.06640625 66.09765625 C-7.89119176 69.13667477 -12.54849233 69.45174815 -19.06640625 69.09765625 C-19.39640625 67.77765625 -19.72640625 66.45765625 -20.06640625 65.09765625 C-18.99390625 64.99453125 -17.92140625 64.89140625 -16.81640625 64.78515625 C-13.0320283 64.09135363 -11.80279379 63.63176463 -9.06640625 61.09765625 C-7.77258476 58.79778824 -7.77258476 58.79778824 -6.87890625 56.22265625 C-6.55535156 55.37960938 -6.23179687 54.5365625 -5.8984375 53.66796875 C-4.57515201 49.58007271 -3.94541616 45.70652645 -3.87695312 41.41503906 C-3.8602356 40.51771057 -3.84351807 39.62038208 -3.82629395 38.69586182 C-3.81271851 37.74048523 -3.79914307 36.78510864 -3.78515625 35.80078125 C-3.76674683 34.81140564 -3.7483374 33.82203003 -3.72937012 32.80267334 C-3.6507828 28.5767278 -3.58266414 24.35063101 -3.51416016 20.12451172 C-3.46260499 17.03735051 -3.40532042 13.9503334 -3.34765625 10.86328125 C-3.33408081 9.89980774 -3.32050537 8.93633423 -3.30651855 7.94366455 C-3.28980103 7.0589447 -3.2730835 6.17422485 -3.25585938 5.26269531 C-3.23706726 4.08951752 -3.23706726 4.08951752 -3.21789551 2.89263916 C-2.99709465 0.27638916 -2.62050785 0.12384253 0 0 Z " fill="#BB0226" transform="translate(500.06640625,191.90234375)"/>
<path d="M0 0 C0.33 0 0.66 0 1 0 C1 22.77 1 45.54 1 69 C0.34 68.34 -0.32 67.68 -1 67 C-1.99 67.99 -1.99 67.99 -3 69 C-3 65.37 -3 61.74 -3 58 C-5.660625 58.061875 -5.660625 58.061875 -8.375 58.125 C-11.3984375 58.1953125 -11.3984375 58.1953125 -14 58 C-16 56 -16 56 -16.22705078 53.29443359 C-16.21657715 52.17375488 -16.20610352 51.05307617 -16.1953125 49.8984375 C-16.18886719 48.68671875 -16.18242187 47.475 -16.17578125 46.2265625 C-16.15902344 44.95554688 -16.14226562 43.68453125 -16.125 42.375 C-16.11146484 40.456875 -16.11146484 40.456875 -16.09765625 38.5 C-16.07402303 35.33314833 -16.04107629 32.16666576 -16 29 C-15.37351562 28.94811523 -14.74703125 28.89623047 -14.1015625 28.84277344 C-12.87566406 28.72724121 -12.87566406 28.72724121 -11.625 28.609375 C-10.40683594 28.50061035 -10.40683594 28.50061035 -9.1640625 28.38964844 C-6.83988894 28.16283879 -6.83988894 28.16283879 -5 26.25 C-3.73532867 23.6258095 -3.73532867 23.6258095 -3 19 C-7.29 19 -11.58 19 -16 19 C-16 16.36 -16 13.72 -16 11 C-15.67 11 -15.34 11 -15 11 C-15 12.98 -15 14.96 -15 17 C-10.71 17 -6.42 17 -2 17 C-1.67 17.99 -1.34 18.98 -1 20 C-0.67 13.4 -0.34 6.8 0 0 Z " fill="#FEF6F6" transform="translate(315,34)"/>
<path d="M0 0 C4.94277006 2.33658221 7.15265384 4.8684829 9 10 C9.88794625 15.10569091 8.12094545 18.06664243 5.484375 22.265625 C3.22453362 24.90607124 1.08284785 25.79190169 -2.296875 26.44140625 C-7.3951487 26.69307263 -10.37364677 26.26076947 -14.3125 22.875 C-17.43377395 19.76638842 -20.29068184 16.4713139 -23 13 C-22.67 12.67 -22.34 12.34 -22 12 C-21.76636119 10.15108054 -21.58696365 8.29511969 -21.4375 6.4375 C-21.35371094 5.42558594 -21.26992188 4.41367188 -21.18359375 3.37109375 C-21.12300781 2.58863281 -21.06242187 1.80617187 -21 1 C-20.67 1 -20.34 1 -20 1 C-19.67 3.64 -19.34 6.28 -19 9 C-18.443125 8.071875 -17.88625 7.14375 -17.3125 6.1875 C-12.64904935 -0.24049955 -7.61604309 -1.08626256 0 0 Z " fill="#FCF5F6" transform="translate(350,143)"/>
<path d="M0 0 C4.40824712 1.54884358 6.92025213 2.88411799 9.06982422 7.09643555 C10.25895649 10.80833845 10.24907017 14.29194165 10.1953125 18.14453125 C10.1924826 18.91431808 10.18965271 19.68410492 10.18673706 20.47721863 C10.17559157 22.92247425 10.15049781 25.36735612 10.125 27.8125 C10.1149629 29.47590615 10.10583833 31.13931807 10.09765625 32.80273438 C10.07567073 36.86863237 10.04118014 40.93425294 10 45 C9.14535156 44.98839844 8.29070312 44.97679687 7.41015625 44.96484375 C6.30542969 44.95582031 5.20070313 44.94679687 4.0625 44.9375 C2.96035156 44.92589844 1.85820312 44.91429687 0.72265625 44.90234375 C-1.91447634 44.68737429 -1.91447634 44.68737429 -3 46 C1.95 46 6.9 46 12 46 C12 46.33 12 46.66 12 47 C6.72 47 1.44 47 -4 47 C-4.02578125 44.43605469 -4.0515625 41.87210938 -4.078125 39.23046875 C-4.11653432 36.74817915 -4.1616979 34.26609807 -4.20751953 31.78393555 C-4.23575031 30.05845082 -4.2569544 28.33283626 -4.27099609 26.60717773 C-4.29239742 24.12676426 -4.33902917 21.6479151 -4.390625 19.16796875 C-4.39185364 18.39599655 -4.39308228 17.62402435 -4.39434814 16.82865906 C-4.50154681 12.51822009 -4.50154681 12.51822009 -6.80859375 9.02148438 C-10.03513431 7.51749087 -13.250954 7.42825294 -16.75 7.3125 C-17.44738281 7.27833984 -18.14476562 7.24417969 -18.86328125 7.20898438 C-20.57497108 7.12691705 -22.2874576 7.06177081 -24 7 C-24 6.67 -24 6.34 -24 6 C-17.66666667 6 -11.33333333 6 -5 6 C-4.67 4.68 -4.34 3.36 -4 2 C-3.01 2 -2.02 2 -1 2 C-0.67 1.34 -0.34 0.68 0 0 Z " fill="#E42223" transform="translate(450,56)"/>
<path d="M0 0 C9.12597162 2.46850052 16.71735427 4.65069361 22.67578125 12.31640625 C23.94985363 14.05086538 23.94985363 14.05086538 25.640625 15.39453125 C28.07113179 18.26504357 27.45758325 21.48986722 27.34375 25.08984375 C26.38847949 33.17707701 21.96775088 39.62790034 16 45 C12.81120455 47.28522372 9.60188501 49.42623306 6 51 C5.34 50.67 4.68 50.34 4 50 C4.474375 49.4225 4.94875 48.845 5.4375 48.25 C6.9484867 46.07417916 7.54036151 44.57397552 8 42 C8.66 42 9.32 42 10 42 C10.87510383 36.52140877 11.29024034 31.10142201 11.5625 25.5625 C11.60568359 24.73556641 11.64886719 23.90863281 11.69335938 23.05664062 C11.79838033 21.03790451 11.89958559 19.01897049 12 17 C11.34 17 10.68 17 10 17 C8.50178941 13.62902617 8 11.79557881 8 8 C7.01 7.67 6.02 7.34 5 7 C4.855625 6.360625 4.71125 5.72125 4.5625 5.0625 C4.19895007 2.79688294 4.19895007 2.79688294 1.9375 1.75 C1.298125 1.5025 0.65875 1.255 0 1 C0 0.67 0 0.34 0 0 Z " fill="#056BB2" transform="translate(170,43)"/>
<path d="M0 0 C3 1 3 1 4.140625 2.85546875 C4.50671875 3.62503906 4.8728125 4.39460938 5.25 5.1875 C9.74661277 13.58206408 16.93570813 18.25525716 26 21 C30.96986401 21.78152626 35.9750042 21.92540492 41 22 C41.495 23.485 41.495 23.485 42 25 C34.2599297 32.26954931 26.75096109 35.30758881 16 35 C11.30605565 33.5400982 11.30605565 33.5400982 9.9375 31.125 C9.628125 30.42375 9.31875 29.7225 9 29 C8.29875 28.29875 7.5975 27.5975 6.875 26.875 C6.25625 26.25625 5.6375 25.6375 5 25 C5 24.34 5 23.68 5 23 C4.34 23 3.68 23 3 23 C0.05602712 15.2370239 -0.34937193 8.25552919 0 0 Z " fill="#0A99A1" transform="translate(129,73)"/>
<path d="M0 0 C1.670625 0.061875 1.670625 0.061875 3.375 0.125 C8.48202063 1.35772912 12.816974 3.82696016 17 7 C17 7.66 17 8.32 17 9 C16.21238281 9.01417969 15.42476562 9.02835938 14.61328125 9.04296875 C4.89236971 9.46861813 -4.22649353 11.29809703 -12.0625 17.375 C-14.35028822 20.47458404 -16.19730589 23.59491112 -18 27 C-18.66 27 -19.32 27 -20 27 C-20 28.32 -20 29.64 -20 31 C-20.66 31 -21.32 31 -22 31 C-22 32.98 -22 34.96 -22 37 C-25.93751761 31.09372358 -26.81386504 23.97419738 -26 17 C-24.78208476 12.40392572 -22.91913009 9.70284834 -19 7 C-19 6.01 -19 5.02 -19 4 C-14.18341334 -1.00925013 -6.47567794 -0.25799514 0 0 Z " fill="#B11435" transform="translate(152,35)"/>
<path d="M0 0 C6.6 0 13.2 0 20 0 C19.01 1.65 18.02 3.3 17 5 C16.54340617 8.41632249 16.54340617 8.41632249 16.59936523 12.18945312 C16.59238617 12.89416245 16.5854071 13.59887177 16.57821655 14.32493591 C16.5582953 16.64383024 16.55874019 18.96227786 16.55859375 21.28125 C16.54681642 22.89881585 16.53345131 24.51637086 16.51856995 26.13391113 C16.48242011 30.38656791 16.46219394 34.63912853 16.44702148 38.89190674 C16.42217266 45.69841452 16.38246107 52.50470974 16.32512093 59.3110199 C16.30882781 61.68465172 16.30501759 64.05808192 16.30210876 66.4317627 C16.29232959 67.89136093 16.28206585 69.35095603 16.27124023 70.81054688 C16.26696518 72.08119995 16.26269012 73.35185303 16.25828552 74.66101074 C16.00953523 77.87673324 15.38498035 80.11089982 14 83 C13.67 83 13.34 83 13 83 C13.10745996 72.88180712 13.22008498 62.76368627 13.33933926 52.64562511 C13.39454827 47.94761188 13.4479651 43.2495924 13.49731445 38.55151367 C13.54498774 34.01922965 13.59733172 29.48702162 13.65294075 24.95482826 C13.67335085 23.22406209 13.69206616 21.4932751 13.70907402 19.76247215 C13.73314776 17.34181553 13.7631983 14.92130246 13.79467773 12.50073242 C13.8004332 11.78216064 13.80618866 11.06358887 13.81211853 10.32324219 C13.85721107 7.28095686 14.0300445 4.90986651 15 2 C11.37 2 7.74 2 4 2 C4.99 3.485 4.99 3.485 6 5 C6.20400456 7.44357331 6.2937365 9.77414193 6.29052734 12.21850586 C6.30060318 13.31678711 6.30060318 13.31678711 6.31088257 14.43725586 C6.32990861 16.86318732 6.3337905 19.28884225 6.3359375 21.71484375 C6.34236745 23.40816866 6.34909596 25.10149247 6.35610962 26.79481506 C6.36809756 30.3515988 6.37178941 33.90828537 6.37060547 37.46508789 C6.37040338 41.99405361 6.39758335 46.522384 6.43214989 51.05119991 C6.45454849 54.55425291 6.4584389 58.0571569 6.45738602 61.56027412 C6.45972723 63.22782114 6.46846616 64.89537321 6.48405075 66.56284904 C6.56770726 76.44784889 5.9817993 84.74858837 2 94 C4.475 93.505 4.475 93.505 7 93 C3.51279384 97.3590077 0.27239085 97.94552183 -5 99 C-4.59007812 98.39414062 -4.18015625 97.78828125 -3.7578125 97.1640625 C-3.21898437 96.32617188 -2.68015625 95.48828125 -2.125 94.625 C-1.59132813 93.81289063 -1.05765625 93.00078125 -0.5078125 92.1640625 C3.97423888 82.75872153 3.31094489 72.19529778 3.30078125 62.01171875 C3.30467539 60.3788899 3.30901153 58.74606205 3.31376648 57.11323547 C3.32118639 53.71014094 3.32096612 50.30715027 3.31567383 46.90405273 C3.30985206 42.5484517 3.32689541 38.19327218 3.3500185 33.8377409 C3.36475315 30.47395862 3.36562848 27.11027833 3.36250877 23.7464695 C3.36302105 22.14013642 3.36824115 20.53379749 3.37832069 18.92749596 C3.39067759 16.68535163 3.38390124 14.44403565 3.37231445 12.2019043 C3.37294388 10.92856735 3.3735733 9.65523041 3.3742218 8.3433075 C3.18037367 4.51500019 3.18037367 4.51500019 0 0 Z " fill="#A50C22" transform="translate(309,190)"/>
<path d="M0 0 C6.68875836 2.46427939 11.41878063 7.61488587 15.5625 13.3125 C14.5725 13.3125 13.5825 13.3125 12.5625 13.3125 C12.5625 16.2825 12.5625 19.2525 12.5625 22.3125 C10.5825 23.3025 10.5825 23.3025 8.5625 24.3125 C9.2225 23.3225 9.8825 22.3325 10.5625 21.3125 C10.80305468 19.25540404 10.80305468 19.25540404 10.6875 17.125 C10.64625 15.866875 10.605 14.60875 10.5625 13.3125 C9.77875 14.281875 8.995 15.25125 8.1875 16.25 C6.64961295 18.15212346 5.76990087 19.20879957 3.5625 20.3125 C-3.52708838 20.8936138 -3.52708838 20.8936138 -7.375 18.4375 C-10.43438898 15.28540226 -10.96689743 12.85969923 -10.91015625 8.42578125 C-10.1415663 4.98935844 -8.20693319 3.35807968 -5.4296875 1.328125 C-3.4375 0.3125 -3.4375 0.3125 0 0 Z " fill="#FCF2F4" transform="translate(318.4375,158.6875)"/>
<path d="M0 0 C6.27 0 12.54 0 19 0 C18.34 1.32 17.68 2.64 17 4 C16.70284924 6.3100232 16.70284924 6.3100232 16.74462891 8.79345703 C16.73419052 10.21611374 16.73419052 10.21611374 16.72354126 11.66751099 C16.72453827 12.68731049 16.72553528 13.70710999 16.7265625 14.7578125 C16.70626188 16.93229671 16.68541089 19.10677583 16.6640625 21.28125 C16.64153473 24.69763471 16.62501924 28.11381806 16.61914062 31.53027344 C16.60955703 34.83565436 16.57569666 38.14013551 16.5390625 41.4453125 C16.54410797 42.45296661 16.54915344 43.46062073 16.55435181 44.49880981 C16.44392481 52.55276946 14.77939175 59.44855499 9.75 65.875 C1.3845654 72.33919946 -6.56922161 73.73739436 -17 73 C-22.69577753 71.79839909 -26.91591776 69.17690229 -31 65 C-35 58.54037267 -35 58.54037267 -35 55 C-34.34 55 -33.68 55 -33 55 C-33 55.99 -33 56.98 -33 58 C-32.34 58 -31.68 58 -31 58 C-30.9175 58.94875 -30.835 59.8975 -30.75 60.875 C-30.34977849 64.06376205 -30.34977849 64.06376205 -28.125 65.3125 C-27.42375 65.539375 -26.7225 65.76625 -26 66 C-25.01 66.33 -24.02 66.66 -23 67 C-23 67.66 -23 68.32 -23 69 C-8.95768215 71.14948458 -8.95768215 71.14948458 4 67 C5.03647024 65.69481525 6.04422943 64.36538653 7 63 C7.99 62.67 8.98 62.34 10 62 C13.40330648 55.17933416 13.46601062 47.54007231 13.51171875 40.0859375 C13.52966995 38.99028473 13.54762115 37.89463196 13.56611633 36.76577759 C13.61984542 33.30222299 13.65399487 29.83880321 13.6875 26.375 C13.72070606 24.01170014 13.75519872 21.64841798 13.79101562 19.28515625 C13.87555035 13.52353538 13.94253921 7.7619519 14 2 C9.545 2.495 9.545 2.495 5 3 C4.67 17.85 4.34 32.7 4 48 C3.67 48 3.34 48 3 48 C2.970271 46.08537964 2.970271 46.08537964 2.93994141 44.13208008 C2.86377337 39.38888074 2.775073 34.64598368 2.68261719 29.90307617 C2.64437375 27.85170466 2.60951281 25.80026716 2.578125 23.7487793 C2.53237398 20.79712362 2.47439578 17.84592047 2.4140625 14.89453125 C2.40251129 13.97976517 2.39096008 13.06499908 2.37905884 12.12251282 C2.35918915 11.26199814 2.33931946 10.40148346 2.31884766 9.51489258 C2.30552399 8.76210526 2.29220032 8.00931793 2.2784729 7.23371887 C2.02830075 4.45770208 2.02830075 4.45770208 0 0 Z " fill="#A71026" transform="translate(493,190)"/>
<path d="M0 0 C16.17 0 32.34 0 49 0 C48.01 3.63 47.02 7.26 46 11 C44.68 10.34 43.36 9.68 42 9 C37.71 8.67 33.42 8.34 29 8 C29 25.82 29 43.64 29 62 C28.67 62 28.34 62 28 62 C27.93050076 54.75038346 27.87718938 47.5008387 27.84456348 40.25095654 C27.82890489 36.88455123 27.80766379 33.51837377 27.77368164 30.15209961 C27.73738251 26.28232751 27.7202925 22.41287974 27.70703125 18.54296875 C27.69154739 17.33352097 27.67606354 16.12407318 27.66011047 14.87797546 C27.65988388 13.75703995 27.65965729 12.63610443 27.65942383 11.48120117 C27.65276199 10.49302902 27.64610016 9.50485687 27.63923645 8.48674011 C28 6 28 6 31 3 C16.15 2.505 16.15 2.505 1 2 C0.67 2.66 0.34 3.32 0 4 C0 2.68 0 1.36 0 0 Z " fill="#B52A3D" transform="translate(360,190)"/>
<path d="M0 0 C0.74185547 0.00064453 1.48371094 0.00128906 2.24804688 0.00195312 C6.09474828 0.03278154 9.69874311 0.26206513 13.4375 1.1875 C13.4375 4.4875 13.4375 7.7875 13.4375 11.1875 C12.674375 10.878125 11.91125 10.56875 11.125 10.25 C6.69553245 8.49881515 3.0043727 7.93032669 -1.75 7.625 C-3.02230469 7.54121094 -4.29460937 7.45742187 -5.60546875 7.37109375 C-6.58128906 7.31050781 -7.55710937 7.24992188 -8.5625 7.1875 C-8.5625 6.5275 -8.5625 5.8675 -8.5625 5.1875 C-10.18973299 5.63784123 -11.81423664 6.09805354 -13.4375 6.5625 C-14.34242188 6.81773437 -15.24734375 7.07296875 -16.1796875 7.3359375 C-18.70819726 8.0479315 -18.70819726 8.0479315 -20.5625 10.1875 C-21.64659289 13.3494376 -21.75820412 16.42437725 -21.8125 19.75 C-21.83828125 20.70003906 -21.8640625 21.65007812 -21.890625 22.62890625 C-21.50820642 25.61086065 -20.77214491 26.27441269 -18.5625 28.1875 C-18.5625 28.8475 -18.5625 29.5075 -18.5625 30.1875 C-17.9025 30.1875 -17.2425 30.1875 -16.5625 30.1875 C-16.2325 31.8375 -15.9025 33.4875 -15.5625 35.1875 C-19.88409909 31.9222918 -22.79978591 29.47564226 -24.5625 24.1875 C-25.20028278 18.91201283 -25.26610705 14.64883773 -22.9375 9.8125 C-15.96320849 2.10407254 -10.09998863 -0.16759806 0 0 Z " fill="#B30E28" transform="translate(432.5625,188.8125)"/>
<path d="M0 0 C0.33 1.32 0.66 2.64 1 4 C1.66 3.67 2.32 3.34 3 3 C5.69829074 2.90208977 8.36484461 2.8609375 11.0625 2.875 C11.80822266 2.87113281 12.55394531 2.86726562 13.32226562 2.86328125 C18.87336499 2.87336499 18.87336499 2.87336499 20 4 C20.10428325 5.81967907 20.13854352 7.64341206 20.14526367 9.46606445 C20.15164352 10.63430252 20.15802338 11.80254059 20.16459656 13.00617981 C20.16570938 14.27902328 20.1668222 15.55186676 20.16796875 16.86328125 C20.17129715 18.16194626 20.17462555 19.46061127 20.17805481 20.79862976 C20.18405341 23.55350576 20.18589406 26.30835035 20.18530273 29.06323242 C20.18520129 32.59068906 20.19883117 36.11794357 20.21607494 39.64535236 C20.22988396 43.00966509 20.22928429 46.37394054 20.23046875 49.73828125 C20.23765427 51.00505203 20.24483978 52.27182281 20.25224304 53.57698059 C20.24916641 54.75467514 20.24608978 55.93236969 20.24291992 57.14575195 C20.24434494 58.18198196 20.24576996 59.21821198 20.24723816 60.2858429 C20 63 20 63 18 67 C21.96 67 25.92 67 30 67 C30 66.34 30 65.68 30 65 C29.34 65 28.68 65 28 65 C28 44.87 28 24.74 28 4 C28.33 4 28.66 4 29 4 C29.01213028 5.01024986 29.01213028 5.01024986 29.02450562 6.04090881 C29.11071829 13.06546565 29.21022924 20.08974572 29.31738281 27.11401367 C29.3556107 29.73375797 29.39047427 32.35355365 29.421875 34.97338867 C29.46765941 38.74416436 29.525633 42.51458822 29.5859375 46.28515625 C29.59748871 47.45208511 29.60903992 48.61901398 29.62094116 49.82130432 C29.72518591 55.59558094 30.04791911 60.5524714 32 66 C32.33 66.99 32.66 67.98 33 69 C26.73 69 20.46 69 14 69 C14.99 67.02 15.98 65.04 17 63 C17.46312655 60.0186108 17.46312655 60.0186108 17.43237305 56.90283203 C17.45216721 55.72206085 17.47196136 54.54128967 17.49235535 53.32473755 C17.49874527 52.06515228 17.50513519 50.80556702 17.51171875 49.5078125 C17.52966995 48.20673553 17.54762115 46.90565857 17.56611633 45.56515503 C17.61344821 42.12277213 17.64336555 38.680454 17.66955566 35.237854 C17.69944672 31.7183351 17.74594743 28.19903899 17.79101562 24.6796875 C17.87685683 17.78658564 17.94428689 10.89340945 18 4 C15.75714582 4.09920968 13.51505816 4.21585079 11.2734375 4.33984375 C9.40051025 4.43446899 9.40051025 4.43446899 7.48974609 4.53100586 C2.67433841 5.17815838 0.50846443 6.74214017 -3 10 C-2.01 6.7 -1.02 3.4 0 0 Z " fill="#A70B23" transform="translate(359,193)"/>
<path d="M0 0 C4.54442589 3.93850244 8.64678136 8.05346101 9.203125 14.26953125 C9.30243619 19.65716352 8.9670454 23.30217811 6 28 C5.67 28 5.34 28 5 28 C5 26.35 5 24.7 5 23 C5.66 23 6.32 23 7 23 C7 19.04 7 15.08 7 11 C5.68 11.33 4.36 11.66 3 12 C3.20625 11.21625 3.4125 10.4325 3.625 9.625 C3.74875 8.75875 3.8725 7.8925 4 7 C3.34 6.34 2.68 5.68 2 5 C1.67 6.65 1.34 8.3 1 10 C0.67 9.34 0.34 8.68 0 8 C-1.93330603 6.90833725 -1.93330603 6.90833725 -4 6 C-4.66 5.67 -5.32 5.34 -6 5 C-10.47884596 4.58778763 -14.6311333 4.49411448 -18.875 6.0625 C-21.78508894 8.71581638 -23.21385815 11.49386971 -25 15 C-25.33 15 -25.66 15 -26 15 C-26.90888858 5.38934483 -26.90888858 5.38934483 -24.83984375 2.2265625 C-17.24481356 -4.18356528 -8.59834194 -4.56164667 0 0 Z " fill="#B50F2B" transform="translate(356,139)"/>
<path d="M0 0 C0.125 2.375 0.125 2.375 0 5 C-0.66 5.66 -1.32 6.32 -2 7 C-2.31935663 10.12962232 -2.31935663 10.12962232 -2.28710938 13.86474609 C-2.29735893 14.92356239 -2.29735893 14.92356239 -2.30781555 16.00376892 C-2.32141881 17.53864727 -2.33046229 19.07357116 -2.33552551 20.60850143 C-2.34379918 23.03787858 -2.36429029 25.46687699 -2.38806152 27.89614868 C-2.43635034 33.05570973 -2.46923554 38.21530861 -2.5 43.375 C-2.53565767 49.34648016 -2.57759951 55.31777625 -2.63594055 61.28908157 C-2.6560083 63.68211553 -2.66432935 66.07500857 -2.67224121 68.46810913 C-2.68521574 69.93756623 -2.69873636 71.40701864 -2.71289062 72.87646484 C-2.72018188 74.15838715 -2.72747314 75.44030945 -2.73498535 76.76107788 C-2.98200014 79.78001158 -3.40326729 81.47207143 -5 84 C-6.18295124 80.28465036 -6.10258882 76.78746094 -6.06933594 72.90820312 C-6.06454727 72.20203354 -6.05975861 71.49586395 -6.05482483 70.76829529 C-6.03717277 68.43918727 -6.01141973 66.11026681 -5.984375 63.78125 C-5.96767682 62.15987179 -5.95101474 60.5384932 -5.93438721 58.91711426 C-5.897946 55.52101786 -5.85672369 52.12501369 -5.81298828 48.72900391 C-5.75795141 44.37783542 -5.72144139 40.02672095 -5.68935776 35.67533112 C-5.66149582 32.32775405 -5.62044237 28.98043219 -5.57575226 25.63304138 C-5.55656318 24.02873276 -5.54226399 22.4243579 -5.53295135 20.81996155 C-5.51862013 18.57681324 -5.48571363 16.33466164 -5.44824219 14.09179688 C-5.43412292 12.81590698 -5.42000366 11.54001709 -5.40545654 10.22546387 C-5 7 -5 7 -2 3 C-8.6 3 -15.2 3 -22 3 C-22 2.34 -22 1.68 -22 1 C-18.52085157 0.83295112 -15.04167833 0.66642482 -11.5625 0.5 C-10.56927734 0.45230469 -9.57605469 0.40460938 -8.55273438 0.35546875 C-7.60849609 0.31035156 -6.66425781 0.26523438 -5.69140625 0.21875 C-4.81685791 0.17685547 -3.94230957 0.13496094 -3.04125977 0.09179688 C-1 0 -1 0 0 0 Z " fill="#FDD6DB" transform="translate(330,188)"/>
<path d="M0 0 C2.9375 1.0625 2.9375 1.0625 5 3 C5.625 6.5 5.625 6.5 5 10 C2.2356683 12.59679645 0.24242905 12.96536728 -3.5 13.5 C-7 13 -7 13 -10 10.8125 C-12 8 -12 8 -12.0625 5.375 C-9.55301281 -0.23444196 -5.79613072 -0.61011902 0 0 Z " fill="#D92324" transform="translate(511,34)"/>
<path d="M0 0 C2.86627693 2.86627693 2.25379886 4.84705851 2.25878906 8.86132812 C2.2622937 9.56732147 2.26579834 10.27331482 2.26940918 11.0007019 C2.27823875 13.34431691 2.27236815 15.68763168 2.265625 18.03125 C2.2669725 19.66353412 2.26891375 21.29581784 2.27142334 22.92810059 C2.27437724 26.35803021 2.27007293 29.78785588 2.26074219 33.21777344 C2.24941947 37.59096949 2.25585942 41.96391809 2.26788712 46.3371048 C2.27516038 49.71396705 2.27279163 53.09077201 2.26763153 56.46763611 C2.26630633 58.0782016 2.26790272 59.68877245 2.27259064 61.29933167 C2.31363968 79.38772425 2.31363968 79.38772425 0 86 C-0.99 86.99 -0.99 86.99 -2 88 C-2.042721 86.33388095 -2.04063832 84.66617115 -2 83 C-1.505 82.505 -1.505 82.505 -1 82 C-0.87497358 79.44500691 -0.81395823 76.91569358 -0.79467773 74.35913086 C-0.78477814 73.55919205 -0.77487854 72.75925323 -0.76467896 71.93507385 C-0.73297082 69.27836108 -0.70826992 66.6216304 -0.68359375 63.96484375 C-0.66303225 62.12780785 -0.642036 60.29077676 -0.62062073 58.45375061 C-0.56531696 53.60895682 -0.51594445 48.76411975 -0.46777344 43.91925049 C-0.41761889 38.97933075 -0.36190134 34.03947417 -0.30664062 29.09960938 C-0.19895754 19.39979349 -0.09753527 9.69992286 0 0 Z " fill="#FCCBD0" transform="translate(311,193)"/>
<path d="M0 0 C1.26440918 0.02255859 2.52881836 0.04511719 3.83154297 0.06835938 C4.79721191 0.09736328 5.76288086 0.12636719 6.7578125 0.15625 C6.82741094 7.76247012 6.88067366 15.3686571 6.91324902 22.97512341 C6.92888593 26.50737466 6.95008751 30.03940759 6.98413086 33.5715332 C7.02304853 37.63494937 7.03753797 41.69813721 7.05078125 45.76171875 C7.06626511 47.0264653 7.08174896 48.29121185 7.09770203 49.59428406 C7.09792862 50.77513077 7.09815521 51.95597748 7.09838867 53.17260742 C7.10505051 54.20963303 7.11171234 55.24665863 7.11857605 56.31510925 C6.70460394 59.57528623 5.61892046 61.48044039 3.7578125 64.15625 C3.0978125 63.16625 2.4378125 62.17625 1.7578125 61.15625 C2.4178125 60.49625 3.0778125 59.83625 3.7578125 59.15625 C4.0895378 56.64935171 4.0895378 56.64935171 4.07666016 53.69677734 C4.09652985 52.55574554 4.11639954 51.41471375 4.13687134 50.23910522 C4.14842255 49.00262238 4.15997375 47.76613953 4.171875 46.4921875 C4.19124115 45.22984283 4.2106073 43.96749817 4.2305603 42.66690063 C4.28030295 39.30990788 4.32153822 35.95302685 4.35870361 32.59588623 C4.39870097 29.17059336 4.44981269 25.74546854 4.5 22.3203125 C4.5962131 15.59906619 4.68121832 8.87774695 4.7578125 2.15625 C2.65286949 2.24333038 0.54879108 2.35150693 -1.5546875 2.46875 C-2.72644531 2.52675781 -3.89820313 2.58476562 -5.10546875 2.64453125 C-8.3405561 3.17229768 -9.32903631 3.58005724 -11.2421875 6.15625 C-11.9021875 5.82625 -12.5621875 5.49625 -13.2421875 5.15625 C-9.11276436 0.29810513 -6.3773341 -0.14745281 0 0 Z " fill="#F7C4CB" transform="translate(370.2421875,196.84375)"/>
<path d="M0 0 C6.27 0 12.54 0 19 0 C18.34 1.32 17.68 2.64 17 4 C16.67620151 6.38049213 16.67620151 6.38049213 16.68115234 8.95214844 C16.66128265 9.93286316 16.64141296 10.91357788 16.62094116 11.92401123 C16.60361435 13.5007663 16.60361435 13.5007663 16.5859375 15.109375 C16.56657135 16.19132141 16.5472052 17.27326782 16.5272522 18.38800049 C16.46749763 21.84192026 16.42108703 25.29587344 16.375 28.75 C16.33681647 31.09246241 16.29776452 33.43491084 16.2578125 35.77734375 C16.16179944 41.51810499 16.07673973 47.25895053 16 53 C15.67 53 15.34 53 15 53 C14.85445577 48.30852117 14.71222297 43.61695634 14.57275391 38.92529297 C14.52510984 37.33705084 14.47663873 35.74883325 14.42724609 34.16064453 C14.09443229 23.43588953 13.93380907 12.73028548 14 2 C9.545 2.495 9.545 2.495 5 3 C4.67 17.85 4.34 32.7 4 48 C3.67 48 3.34 48 3 48 C2.98018066 46.72358643 2.96036133 45.44717285 2.93994141 44.13208008 C2.86377337 39.38888074 2.775073 34.64598368 2.68261719 29.90307617 C2.64437375 27.85170466 2.60951281 25.80026716 2.578125 23.7487793 C2.53237398 20.79712362 2.47439578 17.84592047 2.4140625 14.89453125 C2.40251129 13.97976517 2.39096008 13.06499908 2.37905884 12.12251282 C2.3492543 10.8317408 2.3492543 10.8317408 2.31884766 9.51489258 C2.29886215 8.38571159 2.29886215 8.38571159 2.2784729 7.23371887 C2.02830075 4.45770208 2.02830075 4.45770208 0 0 Z " fill="#B53947" transform="translate(493,190)"/>
<path d="M0 0 C14.85 0 29.7 0 45 0 C45 3.63 45 7.26 45 11 C44.34 10.67 43.68 10.34 43 10 C43.33 7.03 43.66 4.06 44 1 C25.19 1.495 25.19 1.495 6 2 C6 23.78 6 45.56 6 68 C5.34 68 4.68 68 4 68 C4.00888245 67.23658295 4.01776489 66.47316589 4.0269165 65.68661499 C4.10720198 58.47760916 4.16803471 51.26882137 4.20724869 44.05948448 C4.22808715 40.3534265 4.25633503 36.6477392 4.30175781 32.94189453 C4.34535112 29.36274214 4.36916523 25.78394536 4.37950897 22.20454788 C4.38687635 20.84181753 4.40126338 19.47910573 4.42292023 18.11652756 C4.45212718 16.2020658 4.45363537 14.28724307 4.45410156 12.37255859 C4.46298401 11.28445892 4.47186646 10.19635925 4.48101807 9.07528687 C4.10203917 5.24423789 4.10203917 5.24423789 0 0 Z " fill="#B53744" transform="translate(197,190)"/>
<path d="M0 0 C4.95 0 9.9 0 15 0 C15 2.31 15 4.62 15 7 C14.67 7 14.34 7 14 7 C14 5.35 14 3.7 14 2 C10.04 2 6.08 2 2 2 C2.33 17.84 2.66 33.68 3 50 C0 47 0 47 -0.36076355 44.85493469 C-0.35410172 44.02664658 -0.34743988 43.19835846 -0.34057617 42.3449707 C-0.34034958 41.40422195 -0.34012299 40.46347321 -0.33988953 39.49421692 C-0.32440567 38.48163315 -0.30892181 37.46904938 -0.29296875 36.42578125 C-0.28872391 35.38681198 -0.28447906 34.34784271 -0.28010559 33.27738953 C-0.26329849 29.95549724 -0.22564196 26.63420925 -0.1875 23.3125 C-0.17245582 21.06185771 -0.15876695 18.81120593 -0.14648438 16.56054688 C-0.1133882 11.04013136 -0.06159139 5.52016817 0 0 Z " fill="#C22627" transform="translate(467,45)"/>
<path d="M0 0 C6.27 0 12.54 0 19 0 C19 0.66 19 1.32 19 2 C18.34 2 17.68 2 17 2 C16.34 5.96 15.68 9.92 15 14 C14.67 14 14.34 14 14 14 C13.97287934 12.56260487 13.95354933 11.12506137 13.9375 9.6875 C13.92589844 8.88699219 13.91429687 8.08648437 13.90234375 7.26171875 C14 5 14 5 15 2 C11.7 2.33 8.4 2.66 5 3 C4.67 23.46 4.34 43.92 4 65 C3.67 65 3.34 65 3 65 C2.99191315 64.25941849 2.98382629 63.51883698 2.97549438 62.7558136 C2.8974638 55.76705317 2.81014775 48.77848431 2.71247292 41.78997517 C2.66258616 38.19734348 2.61625577 34.60474011 2.578125 31.01196289 C2.54117546 27.54292796 2.4947899 24.07413441 2.44193649 20.60530663 C2.41446103 18.64176204 2.39668845 16.67808943 2.37905884 14.71443176 C2.35918915 13.5135643 2.33931946 12.31269684 2.31884766 11.07543945 C2.30552399 10.02064896 2.29220032 8.96585846 2.2784729 7.87910461 C2.0926363 4.55425096 2.0926363 4.55425096 0 0 Z " fill="#CF5B69" transform="translate(335,190)"/>
<path d="M0 0 C0.33 0 0.66 0 1 0 C1.00364563 0.57914154 1.00729126 1.15828308 1.01104736 1.75497437 C1.05309865 7.82321238 1.12260029 13.89070989 1.20751953 19.95849609 C1.23561629 22.21818611 1.25688657 24.47797233 1.27099609 26.73779297 C1.29258219 30.00017152 1.33931349 33.26140686 1.390625 36.5234375 C1.39185364 37.52176605 1.39308228 38.5200946 1.39434814 39.54867554 C1.53564748 46.42954925 3.03209956 51.7969077 6 58 C4.35 57.34 2.7 56.68 1 56 C1 54.68 1 53.36 1 52 C0.34 52 -0.32 52 -1 52 C-1.02526739 44.75513449 -1.0428318 37.51028026 -1.05493164 30.26538086 C-1.05997356 27.79857967 -1.06680691 25.33178148 -1.07543945 22.86499023 C-1.08751125 19.32795471 -1.09322956 15.79095855 -1.09765625 12.25390625 C-1.10281754 11.14350479 -1.10797882 10.03310333 -1.11329651 8.88905334 C-1.11337204 7.86807053 -1.11344757 6.84708771 -1.11352539 5.79516602 C-1.115746 4.89137711 -1.11796661 3.9875882 -1.12025452 3.05641174 C-1 1 -1 1 0 0 Z " fill="#A6192D" transform="translate(260,195)"/>
<path d="M0 0 C0.33 0 0.66 0 1 0 C1 22.77 1 45.54 1 69 C0.34 68.34 -0.32 67.68 -1 67 C-1.99 67.99 -1.99 67.99 -3 69 C-3 65.37 -3 61.74 -3 58 C-6.63 58 -10.26 58 -14 58 C-14 57.67 -14 57.34 -14 57 C-12.02090602 56.97313447 -10.04171029 56.95366625 -8.0625 56.9375 C-6.96035156 56.92589844 -5.85820312 56.91429687 -4.72265625 56.90234375 C-2 57 -2 57 -1 58 C-0.67 38.86 -0.34 19.72 0 0 Z " fill="#FFF2F0" transform="translate(315,34)"/>
<path d="M0 0 C0.99 0 1.98 0 3 0 C3.06058594 0.61488281 3.12117188 1.22976562 3.18359375 1.86328125 C3.26738281 2.67152344 3.35117187 3.47976562 3.4375 4.3125 C3.51871094 5.11300781 3.59992188 5.91351563 3.68359375 6.73828125 C3.95265693 9.16087179 3.95265693 9.16087179 5 12 C4.01 12.33 3.02 12.66 2 13 C1.34 13.99 0.68 14.98 0 16 C-7.5620966 19.19288523 -17.13597994 19.38210984 -24.8125 16.5 C-25.864375 16.005 -26.91625 15.51 -28 15 C-28.33 16.32 -28.66 17.64 -29 19 C-29.66 16.03 -30.32 13.06 -31 10 C-30.39671875 10.34933594 -29.7934375 10.69867188 -29.171875 11.05859375 C-28.37265625 11.51363281 -27.5734375 11.96867188 -26.75 12.4375 C-25.96109375 12.88996094 -25.1721875 13.34242188 -24.359375 13.80859375 C-19.48230243 16.2713539 -14.38774219 16.79361178 -9 16 C-5.20461755 14.38356795 -1.95228868 12.57895607 0.2109375 8.9921875 C1.18686546 6.52821097 1.20754984 4.62896469 1 2 C0.67 1.34 0.34 0.68 0 0 Z " fill="#AE1128" transform="translate(439,238)"/>
<path d="M0 0 C0 0.66 0 1.32 0 2 C-0.63808594 2.34933594 -1.27617187 2.69867187 -1.93359375 3.05859375 C-2.75988281 3.51363281 -3.58617187 3.96867187 -4.4375 4.4375 C-5.26121094 4.88996094 -6.08492187 5.34242187 -6.93359375 5.80859375 C-8.92308798 6.83662397 -8.92308798 6.83662397 -10 8 C-9.05125 8.0825 -8.1025 8.165 -7.125 8.25 C-2.11022533 8.93991766 2.38454926 11.00337644 7 13 C7 13.66 7 14.32 7 15 C8.65 15 10.3 15 12 15 C12 15.99 12 16.98 12 18 C6.44476327 16.35868006 6.44476327 16.35868006 4.0625 14.4375 C-2.06670646 10.16562883 -11.92398753 11.91167252 -19 12 C-14.36047807 6.91149207 -7.28174373 0 0 0 Z " fill="#217DB3" transform="translate(157,24)"/>
<path d="M0 0 C6.27 0 12.54 0 19 0 C18.34 1.65 17.68 3.3 17 5 C16.67943565 7.43933928 16.67943565 7.43933928 16.68115234 9.97387695 C16.66128265 10.93449539 16.64141296 11.89511383 16.62094116 12.88484192 C16.60361435 14.42104439 16.60361435 14.42104439 16.5859375 15.98828125 C16.56657135 17.04661667 16.5472052 18.10495209 16.5272522 19.19535828 C16.46758752 22.56765748 16.42112307 25.93999106 16.375 29.3125 C16.33680819 31.60222823 16.29775576 33.89194228 16.2578125 36.18164062 C16.16189674 41.78763431 16.07681089 47.39371376 16 53 C15.67 53 15.34 53 15 53 C14.97470627 46.05827612 14.95715696 39.11656406 14.94506836 32.17480469 C14.94003041 29.81184444 14.93319992 27.44888732 14.92456055 25.0859375 C14.91247146 21.69530465 14.90676641 18.30471291 14.90234375 14.9140625 C14.89718246 13.85256989 14.89202118 12.79107727 14.88670349 11.69741821 C14.88662796 10.71655243 14.88655243 9.73568665 14.88647461 8.72509766 C14.884254 7.85905914 14.88203339 6.99302063 14.87974548 6.10073853 C15 4 15 4 16 2 C11.71 2 7.42 2 3 2 C2.67 2.99 2.34 3.98 2 5 C1.34 3.35 0.68 1.7 0 0 Z " fill="#B12E3C" transform="translate(284,190)"/>
<path d="M0 0 C6.6 0 13.2 0 20 0 C19.01 1.65 18.02 3.3 17 5 C16.53903595 7.31142552 16.53903595 7.31142552 16.56762695 9.69848633 C16.54783279 10.59904251 16.52803864 11.49959869 16.50764465 12.42744446 C16.49805977 13.86521492 16.49805977 13.86521492 16.48828125 15.33203125 C16.47033005 16.32377853 16.45237885 17.31552582 16.43388367 18.33732605 C16.37983032 21.49567451 16.34590048 24.65387225 16.3125 27.8125 C16.27932258 29.95770324 16.24483253 32.10288661 16.20898438 34.24804688 C16.12410688 39.49856276 16.05573596 44.74909826 16 50 C15.67 50 15.34 50 15 50 C14.67 34.49 14.34 18.98 14 3 C7.07 2.505 7.07 2.505 0 2 C0 1.34 0 0.68 0 0 Z " fill="#B32F3D" transform="translate(454,190)"/>
<path d="M0 0 C6.6 0 13.2 0 20 0 C18.68 1.65 17.36 3.3 16 5 C16 4.01 16 3.02 16 2 C10.06 2.495 10.06 2.495 4 3 C4 18.51 4 34.02 4 50 C3.67 50 3.34 50 3 50 C2.67 34.16 2.34 18.32 2 2 C1.34 2 0.68 2 0 2 C0 1.34 0 0.68 0 0 Z " fill="#BE434D" transform="translate(245,190)"/>
<path d="M0 0 C0 0.66 0 1.32 0 2 C0.66 2.33 1.32 2.66 2 3 C1.37351562 3.23074219 0.74703125 3.46148437 0.1015625 3.69921875 C-0.71570313 4.02535156 -1.53296875 4.35148438 -2.375 4.6875 C-3.18710937 5.00074219 -3.99921875 5.31398437 -4.8359375 5.63671875 C-7.67638883 7.42610054 -8.13359912 8.78922027 -9 12 C-9.3495286 14.79146293 -9.3495286 14.79146293 -9.3125 17.625 C-9.32925781 18.56601563 -9.34601563 19.50703125 -9.36328125 20.4765625 C-8.94047036 23.41350696 -8.17828646 24.10333896 -6 26 C-6 26.66 -6 27.32 -6 28 C-5.34 28 -4.68 28 -4 28 C-3.67 29.65 -3.34 31.3 -3 33 C-7.32159909 29.7347918 -10.23728591 27.28814226 -12 22 C-12.63778278 16.72451283 -12.70360705 12.46133773 -10.375 7.625 C-3.47619048 0 -3.47619048 0 0 0 Z " fill="#AE1B2E" transform="translate(420,191)"/>
<path d="M0 0 C0.33 0 0.66 0 1 0 C1 6.93 1 13.86 1 21 C8.59 21 16.18 21 24 21 C24 24.3 24 27.6 24 31 C23.01 30.34 22.02 29.68 21 29 C18.87662229 28.63566627 18.87662229 28.63566627 16.55078125 28.5859375 C15.70322266 28.54726562 14.85566406 28.50859375 13.98242188 28.46875 C13.10134766 28.4378125 12.22027344 28.406875 11.3125 28.375 C10.41982422 28.33632812 9.52714844 28.29765625 8.60742188 28.2578125 C6.4051538 28.16359782 4.20289278 28.07798412 2 28 C2 27.67 2 27.34 2 27 C8.6 27 15.2 27 22 27 C22 25.35 22 23.7 22 22 C14.74 22 7.48 22 0 22 C0 14.74 0 7.48 0 0 Z " fill="#9B0A1D" transform="translate(213,198)"/>
<path d="M0 0 C0.66 0 1.32 0 2 0 C2 0.99 2 1.98 2 3 C2.66 3 3.32 3 4 3 C4.0825 3.94875 4.165 4.8975 4.25 5.875 C4.65022151 9.06376205 4.65022151 9.06376205 6.875 10.3125 C7.57625 10.539375 8.2775 10.76625 9 11 C9.99 11.33 10.98 11.66 12 12 C12 12.66 12 13.32 12 14 C22.395 14.99 22.395 14.99 33 16 C28.30849648 19.12766901 23.494586 18.44682783 18 18 C12.30287354 16.79065972 8.08792072 14.18082801 4 10 C0 3.54037267 0 3.54037267 0 0 Z " fill="#AF2335" transform="translate(458,245)"/>
<path d="M0 0 C12.54 0 25.08 0 38 0 C38 2.97 38 5.94 38 9 C36.68 8.67 35.36 8.34 34 8 C32.19540394 7.85557049 30.38712409 7.75394371 28.578125 7.68359375 C27.04091797 7.62075195 27.04091797 7.62075195 25.47265625 7.55664062 C24.40917969 7.51732422 23.34570312 7.47800781 22.25 7.4375 C21.17105469 7.39431641 20.09210938 7.35113281 18.98046875 7.30664062 C16.32043572 7.20071011 13.66031188 7.09863579 11 7 C11 6.67 11 6.34 11 6 C19.58 6 28.16 6 37 6 C37 4.35 37 2.7 37 1 C24.79 1 12.58 1 0 1 C0 0.67 0 0.34 0 0 Z " fill="#A80519" transform="translate(203,191)"/>
<path d="M0 0 C4.03620153 1.34540051 4.85167306 3.41945509 7 7 C8.87052858 12.61158574 8.75605958 18.17285602 6.5 23.625 C6.005 24.40875 5.51 25.1925 5 26 C4.67 26 4.34 26 4 26 C4 24.35 4 22.7 4 21 C4.66 21 5.32 21 6 21 C6 17.04 6 13.08 6 9 C4.68 9.33 3.36 9.66 2 10 C2.20625 9.21625 2.4125 8.4325 2.625 7.625 C2.810625 6.325625 2.810625 6.325625 3 5 C2.34 4.34 1.68 3.68 1 3 C0.67 4.65 0.34 6.3 0 8 C-0.33 7.34 -0.66 6.68 -1 6 C-1.99 5.67 -2.98 5.34 -4 5 C-4 4.34 -4 3.68 -4 3 C-2.68 2.67 -1.36 2.34 0 2 C0 1.34 0 0.68 0 0 Z " fill="#AF2235" transform="translate(357,141)"/>
<path d="M0 0 C17.85649203 -0.18451025 17.85649203 -0.18451025 26 1 C26 4.63 26 8.26 26 12 C19.07 11.67 12.14 11.34 5 11 C5 10.67 5 10.34 5 10 C11.27 10 17.54 10 24 10 C24 7.36 24 4.72 24 2 C23.35675781 2.01160156 22.71351563 2.02320313 22.05078125 2.03515625 C14.65385931 2.10901995 7.36585905 1.65578395 0 1 C0 0.67 0 0.34 0 0 Z " fill="#CF4747" transform="translate(547,52)"/>
<path d="M0 0 C4.29 0.66 8.58 1.32 13 2 C12.67 2.66 12.34 3.32 12 4 C11.01 4.33 10.02 4.66 9 5 C11.31 5.33 13.62 5.66 16 6 C15.67 6.66 15.34 7.32 15 8 C12.75106046 8.10823773 10.50062425 8.18569645 8.25 8.25 C6.37054688 8.31960937 6.37054688 8.31960937 4.453125 8.390625 C1 8 1 8 -1.453125 5.984375 C-1.96359375 5.32953125 -2.4740625 4.6746875 -3 4 C-2.21625 4.185625 -1.4325 4.37125 -0.625 4.5625 C1.97089775 5.25962266 1.97089775 5.25962266 4 4 C2.68 3.34 1.36 2.68 0 2 C0 1.34 0 0.68 0 0 Z " fill="#AC172C" transform="translate(337,167)"/>
<path d="M0 0 C0.66 0 1.32 0 2 0 C3.16018183 2.32036367 3.14823257 3.72206791 3.18945312 6.30688477 C3.20617065 7.19863907 3.22288818 8.09039337 3.2401123 9.00917053 C3.25368774 9.97680832 3.26726318 10.94444611 3.28125 11.94140625 C3.29965942 12.93824936 3.31806885 13.93509247 3.33703613 14.96214294 C3.39589811 18.16220073 3.44859718 21.36231425 3.5 24.5625 C3.55159767 27.73768569 3.60469292 30.91280473 3.66296387 34.08787537 C3.69922554 36.06458292 3.73174153 38.04136398 3.7598877 40.01820374 C3.86459525 45.74176485 4.28274931 51.31970847 5 57 C4.34 56.67 3.68 56.34 3 56 C2.0920009 52.68283792 1.87724041 49.54380717 1.88647461 46.11791992 C1.88655014 45.17732224 1.88662567 44.23672455 1.88670349 43.2676239 C1.89186478 42.2653627 1.89702606 41.2631015 1.90234375 40.23046875 C1.9037587 39.19432938 1.90517365 38.15819 1.90663147 37.09065247 C1.91221758 33.78957196 1.92476758 30.48855992 1.9375 27.1875 C1.94251679 24.94596452 1.94707939 22.70442798 1.95117188 20.46289062 C1.96218247 14.97523716 1.97890682 9.48762347 2 4 C1.34 4 0.68 4 0 4 C0 2.68 0 1.36 0 0 Z " fill="#FCE7EA" transform="translate(245,192)"/>
<path d="M0 0 C2.01565109 1.65058912 2.91868469 2.53441885 3.3742218 5.14265442 C3.37359238 5.9706102 3.37296295 6.79856598 3.37231445 7.65161133 C3.37854324 8.59301468 3.38477203 9.53441803 3.39118958 10.50434875 C3.38197983 11.51998398 3.37277008 12.5356192 3.36328125 13.58203125 C3.36377975 14.62896652 3.36427826 15.67590179 3.36479187 16.75456238 C3.36245004 18.9712412 3.35271518 21.18792262 3.33618164 23.40454102 C3.31266456 26.78881797 3.31561082 30.17230313 3.32226562 33.55664062 C3.31668622 35.71094218 3.3095747 37.86524042 3.30078125 40.01953125 C3.30169266 41.02909378 3.30260406 42.03865631 3.30354309 43.07881165 C3.25308614 48.11211279 2.99869306 52.2869833 1 57 C0.25302849 54.75908548 -0.07103043 53.3156355 0.45288086 50.98754883 C1.25055034 46.63186767 1.23753768 42.30685206 1.31640625 37.88671875 C1.3475779 36.43239189 1.3475779 36.43239189 1.37937927 34.94868469 C1.44458941 31.86169293 1.5036268 28.77461848 1.5625 25.6875 C1.60571237 23.59048636 1.64932752 21.49348097 1.69335938 19.39648438 C1.80024151 14.26440693 1.90158896 9.13224659 2 4 C1.34 4 0.68 4 0 4 C0 2.68 0 1.36 0 0 Z " fill="#FDE0E5" transform="translate(493,192)"/>
<path d="M0 0 C4.29 0 8.58 0 13 0 C13 6 13 6 11.82421875 8.359375 C9.39342454 10.54552825 8.03180065 10.4172364 4.8125 10.25 C3.91144531 10.21390625 3.01039063 10.1778125 2.08203125 10.140625 C1.39496094 10.09421875 0.70789063 10.0478125 0 10 C3 8 3 8 6 7 C6 6.01 6 5.02 6 4 C7.65 4.33 9.3 4.66 11 5 C11 4.01 11 3.02 11 2 C9.9275 2.04125 8.855 2.0825 7.75 2.125 C4 2 4 2 0 0 Z " fill="#CB1D1F" transform="translate(482,53)"/>
<path d="M0 0 C4.95 0 9.9 0 15 0 C15 2.64 15 5.28 15 8 C19.29 8 23.58 8 28 8 C27.74438677 10.3431213 27.40729228 12.67843403 27 15 C26.01 15.495 26.01 15.495 25 16 C25.33 14.02 25.66 12.04 26 10 C25.21753906 10.01160156 24.43507813 10.02320313 23.62890625 10.03515625 C22.61699219 10.04417969 21.60507812 10.05320312 20.5625 10.0625 C19.55316406 10.07410156 18.54382813 10.08570313 17.50390625 10.09765625 C15 10 15 10 14 9 C13.85884839 6.32941149 13.95752893 3.67567762 14 1 C9.38 1 4.76 1 0 1 C0 0.67 0 0.34 0 0 Z " fill="#C73031" transform="translate(284,45)"/>
<path d="M0 0 C0.99 0.66 1.98 1.32 3 2 C2.21625 2.53625 1.4325 3.0725 0.625 3.625 C-4.24770281 8.03363587 -4.35673753 13.78179615 -5 20 C-5.33 20 -5.66 20 -6 20 C-6 16.04 -6 12.08 -6 8 C-7.98 8.66 -9.96 9.32 -12 10 C-8.29909479 6.0747975 -4.45040344 3.05419844 0 0 Z " fill="#D81E23" transform="translate(131,40)"/>
<path d="M0 0 C0.63164062 0.12117188 1.26328125 0.24234375 1.9140625 0.3671875 C9.58030696 1.80322753 17.27355151 2.93972824 25 4 C24.67 4.66 24.34 5.32 24 6 C15.6366461 6.47191339 8.39449243 6.32925411 1 2 C0.67 1.34 0.34 0.68 0 0 Z " fill="#B2283A" transform="translate(256,257)"/>
<path d="M0 0 C1.65 0 3.3 0 5 0 C5.05027344 0.59296875 5.10054688 1.1859375 5.15234375 1.796875 C6.40971763 5.06488821 8.49585269 5.69905194 11.5625 7.25 C12.57441406 7.77078125 13.58632812 8.2915625 14.62890625 8.828125 C15.80259766 9.40820312 15.80259766 9.40820312 17 10 C17.33 9.01 17.66 8.02 18 7 C19.98 9.31 21.96 11.62 24 14 C18.4540098 13.48551349 14.48948481 11.40011722 9.75 8.6875 C9.03070313 8.29626953 8.31140625 7.90503906 7.5703125 7.50195312 C6.88195312 7.11330078 6.19359375 6.72464844 5.484375 6.32421875 C4.86272461 5.97447998 4.24107422 5.62474121 3.60058594 5.2644043 C1.67050134 3.73970812 0.94669213 2.24470041 0 0 Z " fill="#C31A1D" transform="translate(117,91)"/>
<path d="M0 0 C0 0.66 0 1.32 0 2 C-1.46875 3.0078125 -1.46875 3.0078125 -3.5 4.125 C-7.78733101 6.66535805 -10.95973696 9.78728625 -14.3359375 13.42578125 C-16 15 -16 15 -18 15 C-16.50592885 10.2687747 -16.50592885 10.2687747 -14 8.9375 C-13.34 8.628125 -12.68 8.31875 -12 8 C-11.566875 7.05060547 -11.566875 7.05060547 -11.125 6.08203125 C-9.7486083 3.53475077 -8.59712375 2.95307938 -6 1.75 C-5.29875 1.41484375 -4.5975 1.0796875 -3.875 0.734375 C-2 0 -2 0 0 0 Z " fill="#8B1864" transform="translate(152,46)"/>
<path d="M0 0 C0.33 0.66 0.66 1.32 1 2 C2.65 2 4.3 2 6 2 C5.65066406 2.44988281 5.30132812 2.89976562 4.94140625 3.36328125 C0.88357762 9.09941861 0.14049435 14.05191569 0 21 C-0.33 21 -0.66 21 -1 21 C-1.06058594 20.30132812 -1.12117188 19.60265625 -1.18359375 18.8828125 C-1.26738281 17.97273438 -1.35117187 17.06265625 -1.4375 16.125 C-1.51871094 15.22007812 -1.59992188 14.31515625 -1.68359375 13.3828125 C-1.86989285 10.98889139 -1.86989285 10.98889139 -3 9 C-2.44140625 6.8359375 -2.44140625 6.8359375 -1.5625 4.375 C-1.27503906 3.55773437 -0.98757813 2.74046875 -0.69140625 1.8984375 C-0.46324219 1.27195313 -0.23507812 0.64546875 0 0 Z " fill="#F6CED4" transform="translate(408,192)"/>
<path d="M0 0 C0.33 0 0.66 0 1 0 C1 4.95 1 9.9 1 15 C0.34 14.34 -0.32 13.68 -1 13 C-1.66 13.66 -2.32 14.32 -3 15 C-3 11.37 -3 7.74 -3 4 C-6.63 4 -10.26 4 -14 4 C-14 3.67 -14 3.34 -14 3 C-12.02090602 2.97313447 -10.04171029 2.95366625 -8.0625 2.9375 C-6.96035156 2.92589844 -5.85820312 2.91429688 -4.72265625 2.90234375 C-2 3 -2 3 -1 4 C-0.67 2.68 -0.34 1.36 0 0 Z " fill="#FDE1E0" transform="translate(315,88)"/>
<path d="M0 0 C0.33 0 0.66 0 1 0 C1.21755666 5.4389165 1.10428384 9.87080814 -1 15 C0.65 14.67 2.3 14.34 4 14 C0.51279384 18.3590077 -2.72760915 18.94552183 -8 20 C-7.59007812 19.39414062 -7.18015625 18.78828125 -6.7578125 18.1640625 C-2.91697412 12.19146693 -0.86981878 7.04853149 0 0 Z " fill="#A92130" transform="translate(312,269)"/>
<path d="M0 0 C0 0.99 0 1.98 0 3 C-4.62 3.33 -9.24 3.66 -14 4 C-14 4.99 -14 5.98 -14 7 C-14.99 7 -15.98 7 -17 7 C-16.03441599 4.45436943 -15.06131195 3.05364796 -13 1.25 C-8.67683821 -0.55131741 -4.62126599 -0.24227996 0 0 Z " fill="#BB0423" transform="translate(323,155)"/>
<path d="M0 0 C3.25126352 0.27855178 6.5006391 0.57512785 9.75 0.875 C10.67039063 0.95363281 11.59078125 1.03226563 12.5390625 1.11328125 C13.42851562 1.19707031 14.31796875 1.28085937 15.234375 1.3671875 C16.05131836 1.44050293 16.86826172 1.51381836 17.70996094 1.58935547 C20.11762049 2.02109144 21.87909392 2.80326384 24 4 C24 4.66 24 5.32 24 6 C25.65 6 27.3 6 29 6 C29 6.99 29 7.98 29 9 C23.44476327 7.35868006 23.44476327 7.35868006 21.0625 5.4375 C14.93329354 1.16562883 5.07601247 2.91167252 -2 3 C-1.34 2.01 -0.68 1.02 0 0 Z " fill="#42699D" transform="translate(140,33)"/>
<path d="M0 0 C6.6 0 13.2 0 20 0 C18.68 1.65 17.36 3.3 16 5 C16 4.01 16 3.02 16 2 C12.04 2 8.08 2 4 2 C3.67 2.99 3.34 3.98 3 5 C2.01 3.35 1.02 1.7 0 0 Z " fill="#AF2A38" transform="translate(309,190)"/>
<path d="M0 0 C0.4125 0.433125 0.825 0.86625 1.25 1.3125 C4.33152098 4.28396666 6.64954468 6.43495794 11.0625 6.5625 C14.99635442 6.0005208 17.61186042 5.03288375 21 3 C19.63016497 6.16115776 19.0109362 6.9927092 16 9 C13.51953125 9.1953125 13.51953125 9.1953125 10.8125 9.125 C9.91144531 9.10695313 9.01039063 9.08890625 8.08203125 9.0703125 C7.39496094 9.04710937 6.70789063 9.02390625 6 9 C6 8.34 6 7.68 6 7 C4.35 6.67 2.7 6.34 1 6 C0.67 4.02 0.34 2.04 0 0 Z " fill="#A91528" transform="translate(471,248)"/>
<path d="M0 0 C1.02673828 1.11955078 1.02673828 1.11955078 2.07421875 2.26171875 C4.97396481 5.16146481 8.16359787 6.93276254 11.8125 8.8125 C12.97394531 9.41707031 14.13539063 10.02164063 15.33203125 10.64453125 C16.65267578 11.31548828 16.65267578 11.31548828 18 12 C17.34 12.66 16.68 13.32 16 14 C10.36242919 11.88591094 5.34904941 9.24297503 1 5 C0 2.125 0 2.125 0 0 Z " fill="#AE1D31" transform="translate(421,210)"/>
<path d="M0 0 C2.16962726 3.25444089 2.24814289 4.16960076 2.23046875 7.9296875 C2.22853516 8.89003906 2.22660156 9.85039063 2.22460938 10.83984375 C2.21236328 11.84144531 2.20011719 12.84304687 2.1875 13.875 C2.18685547 14.86886719 2.18621094 15.86273438 2.18554688 16.88671875 C2.15827658 21.41358772 1.9972331 25.56840551 1 30 C0.67 30 0.34 30 0 30 C0.00523682 29.42556152 0.01047363 28.85112305 0.01586914 28.25927734 C0.03678576 25.63119623 0.04970659 23.00313271 0.0625 20.375 C0.07087891 19.47136719 0.07925781 18.56773438 0.08789062 17.63671875 C0.10498327 12.95333457 -0.13394732 8.6189476 -1 4 C-0.5625 1.625 -0.5625 1.625 0 0 Z " fill="#33A4A3" transform="translate(197,67)"/>
<path d="M0 0 C6.93 0 13.86 0 21 0 C21 1.65 21 3.3 21 5 C17.37 5 13.74 5 10 5 C10 4.67 10 4.34 10 4 C12.64 4 15.28 4 18 4 C17.67 3.34 17.34 2.68 17 2 C11.39 1.67 5.78 1.34 0 1 C0 0.67 0 0.34 0 0 Z " fill="#B6041F" transform="translate(214,220)"/>
<path d="M0 0 C0.66 0 1.32 0 2 0 C2.85637238 2.92593895 3.38673104 5.08174288 2.17578125 7.95703125 C1.17852152 9.67511732 0.09427085 11.34201387 -1 13 C-1.33 13 -1.66 13 -2 13 C-2.05391993 11.20866022 -2.09275571 9.41686101 -2.125 7.625 C-2.14820313 6.62726563 -2.17140625 5.62953125 -2.1953125 4.6015625 C-2 2 -2 2 0 0 Z " fill="#A81324" transform="translate(332,141)"/>
<path d="M0 0 C0.66 0 1.32 0 2 0 C2 3.96 2 7.92 2 12 C0.68 12.33 -0.64 12.66 -2 13 C-1.85966889 11.02043559 -1.7125877 9.04134859 -1.5625 7.0625 C-1.48128906 5.96035156 -1.40007812 4.85820312 -1.31640625 3.72265625 C-1 1 -1 1 0 0 Z " fill="#BB0324" transform="translate(361,150)"/>
<path d="M0 0 C0.99 0.33 1.98 0.66 3 1 C4.1875 4.0625 4.1875 4.0625 5 7 C4.01 6.67 3.02 6.34 2 6 C2 9.63 2 13.26 2 17 C-0.11126943 12.77746115 -0.2171997 10.85998477 -0.125 6.25 C-0.09792969 4.49429688 -0.09792969 4.49429688 -0.0703125 2.703125 C-0.04710937 1.81109375 -0.02390625 0.9190625 0 0 Z " fill="#308696" transform="translate(129,73)"/>
<path d="M0 0 C0.33 0 0.66 0 1 0 C1 3.3 1 6.6 1 10 C0.01 9.34 -0.98 8.68 -2 8 C-4.12337771 7.63566627 -4.12337771 7.63566627 -6.44921875 7.5859375 C-7.29677734 7.54726562 -8.14433594 7.50859375 -9.01757812 7.46875 C-9.89865234 7.4378125 -10.77972656 7.406875 -11.6875 7.375 C-13.02651367 7.31699219 -13.02651367 7.31699219 -14.39257812 7.2578125 C-16.5948462 7.16359782 -18.79710722 7.07798412 -21 7 C-21 6.67 -21 6.34 -21 6 C-14.4 6 -7.8 6 -1 6 C-0.67 4.02 -0.34 2.04 0 0 Z " fill="#A41D2C" transform="translate(236,219)"/>
<path d="M0 0 C0.66 0.33 1.32 0.66 2 1 C1.67 1.66 1.34 2.32 1 3 C1.804375 2.835 2.60875 2.67 3.4375 2.5 C7.65887352 1.90752652 11.74664545 1.91493291 16 2 C16 2.66 16 3.32 16 4 C15.33613281 4.04898438 14.67226563 4.09796875 13.98828125 4.1484375 C7.2887764 4.71125812 7.2887764 4.71125812 1 7 C0.34 5.02 -0.32 3.04 -1 1 C-0.67 0.67 -0.34 0.34 0 0 Z " fill="#AE2035" transform="translate(334,139)"/>
<path d="M0 0 C-0.75 5.75 -0.75 5.75 -3 8 C-2.67 6.02 -2.34 4.04 -2 2 C-8.93 2 -15.86 2 -23 2 C-23 1.67 -23 1.34 -23 1 C-20.29178874 0.83111377 -17.58345903 0.66482399 -14.875 0.5 C-14.11445312 0.45230469 -13.35390625 0.40460938 -12.5703125 0.35546875 C-8.3724967 0.10215228 -4.20798902 -0.05377622 0 0 Z " fill="#D34848" transform="translate(577,91)"/>
<path d="M0 0 C1.67542976 0.28604898 3.34385343 0.61781233 5 1 C4.34 3.64 3.68 6.28 3 9 C-0.875 7.25 -0.875 7.25 -2 5 C-1.34 5 -0.68 5 0 5 C-0.2784375 4.0409375 -0.2784375 4.0409375 -0.5625 3.0625 C-0.7790625 2.0415625 -0.7790625 2.0415625 -1 1 C-0.67 0.67 -0.34 0.34 0 0 Z " fill="#B1102A" transform="translate(403,192)"/>
<path d="M0 0 C2.75084547 0.11411804 5.50011947 0.24085949 8.25 0.375 C9.02730469 0.4059375 9.80460937 0.436875 10.60546875 0.46875 C11.35957031 0.50742188 12.11367188 0.54609375 12.890625 0.5859375 C13.58188477 0.6173584 14.27314453 0.6487793 14.98535156 0.68115234 C17 1 17 1 21 3 C15.06 3 9.12 3 3 3 C3 2.34 3 1.68 3 1 C2.01 0.67 1.02 0.34 0 0 Z " fill="#CA3132" transform="translate(357,100)"/>
<path d="M0 0 C4.72577574 2.81296175 9.24840796 6.11779778 12 11 C11.66015625 13.21875 11.66015625 13.21875 11 15 C10.34 14.67 9.68 14.34 9 14 C8.375 10.9375 8.375 10.9375 8 8 C7.01 7.67 6.02 7.34 5 7 C5 6.34 5 5.68 5 5 C4.34 5 3.68 5 3 5 C3 4.34 3 3.68 3 3 C2.01 2.67 1.02 2.34 0 2 C0 1.34 0 0.68 0 0 Z " fill="#A60F23" transform="translate(440,223)"/>
<path d="M0 0 C0.33 0 0.66 0 1 0 C1 1.98 1 3.96 1 6 C0.45182617 5.84152588 -0.09634766 5.68305176 -0.66113281 5.51977539 C-3.28238816 4.9372438 -5.73872553 4.78793845 -8.421875 4.68359375 C-9.95908203 4.62075195 -9.95908203 4.62075195 -11.52734375 4.55664062 C-12.59082031 4.51732422 -13.65429688 4.47800781 -14.75 4.4375 C-15.82894531 4.39431641 -16.90789062 4.35113281 -18.01953125 4.30664062 C-20.67956428 4.20071011 -23.33968812 4.09863579 -26 4 C-26 3.67 -26 3.34 -26 3 C-17.42 3 -8.84 3 0 3 C0 2.01 0 1.02 0 0 Z " fill="#A41327" transform="translate(240,194)"/>
<path d="M0 0 C2.31 1.98 4.62 3.96 7 6 C6.01 6.33 5.02 6.66 4 7 C4 9.97 4 12.94 4 16 C2.02 16.99 2.02 16.99 0 18 C0.99 16.515 0.99 16.515 2 15 C2.24055468 12.94290404 2.24055468 12.94290404 2.125 10.8125 C2.08375 9.554375 2.0425 8.29625 2 7 C1.67 7 1.34 7 1 7 C0.67 4.69 0.34 2.38 0 0 Z " fill="#FCDEE3" transform="translate(327,165)"/>
<path d="M0 0 C0 1.65 0 3.3 0 5 C-1.98 5.99 -1.98 5.99 -4 7 C-3.34 5.68 -2.68 4.36 -2 3 C-8.6 3 -15.2 3 -22 3 C-22 2.34 -22 1.68 -22 1 C-18.52085157 0.83295112 -15.04167833 0.66642482 -11.5625 0.5 C-10.56927734 0.45230469 -9.57605469 0.40460938 -8.55273438 0.35546875 C-7.60849609 0.31035156 -6.66425781 0.26523438 -5.69140625 0.21875 C-4.81685791 0.17685547 -3.94230957 0.13496094 -3.04125977 0.09179688 C-1 0 -1 0 0 0 Z " fill="#FCE6E9" transform="translate(330,188)"/>
<path d="M0 0 C0.33 0 0.66 0 1 0 C1.08096803 1.45742463 1.13917774 2.91612807 1.1875 4.375 C1.22230469 5.18710938 1.25710938 5.99921875 1.29296875 6.8359375 C1.19628906 7.55007812 1.09960938 8.26421875 1 9 C0.01 9.66 -0.98 10.32 -2 11 C-2 9.68 -2 8.36 -2 7 C-3.98 7.99 -3.98 7.99 -6 9 C-4.47300326 5.56425733 -2.44973747 2.84485642 0 0 Z " fill="#AD2A37" transform="translate(329,171)"/>
<path d="M0 0 C2 1 2 1 3 3.875 C5.68132625 8.06457226 8.24359312 8.39110902 12.91796875 9.5546875 C13.94857422 9.77511719 13.94857422 9.77511719 15 10 C14.34 10.66 13.68 11.32 13 12 C9.0194932 11.90953394 7.03131227 11.02067791 3.6875 8.8125 C0.73604726 5.72377039 0.1950545 4.19367185 0 0 Z " fill="#CB2124" transform="translate(284,90)"/>
<path d="M0 0 C0.66 0 1.32 0 2 0 C1.61471495 6.16456078 -0.47086025 9.98627748 -4 15 C-4.99 14.67 -5.98 14.34 -7 14 C-6.2884375 13.1028125 -6.2884375 13.1028125 -5.5625 12.1875 C-3.83534256 9.99617076 -3.83534256 9.99617076 -3 7 C-2.34 7 -1.68 7 -1 7 C-0.67 4.69 -0.34 2.38 0 0 Z " fill="#A91427" transform="translate(297,242)"/>
<path d="M0 0 C0.99 0 1.98 0 3 0 C3 0.66 3 1.32 3 2 C5.97 2 8.94 2 12 2 C12.33 2.66 12.66 3.32 13 4 C7.06 4.495 7.06 4.495 1 5 C0.34 3.68 -0.32 2.36 -1 1 C-0.67 0.67 -0.34 0.34 0 0 Z " fill="#BB0523" transform="translate(310,179)"/>
<path d="M0 0 C0.33 0 0.66 0 1 0 C1.13277344 0.88042969 1.26554687 1.76085937 1.40234375 2.66796875 C1.57894531 3.82941406 1.75554687 4.99085938 1.9375 6.1875 C2.11152344 7.33605469 2.28554688 8.48460937 2.46484375 9.66796875 C2.91379313 12.46325212 3.42082162 15.22933586 4 18 C2.02 16.35 0.04 14.7 -2 13 C-1.67 12.34 -1.34 11.68 -1 11 C-0.7724985 9.12943209 -0.59037189 7.25314042 -0.4375 5.375 C-0.35371094 4.37210938 -0.26992188 3.36921875 -0.18359375 2.3359375 C-0.12300781 1.56507813 -0.06242187 0.79421875 0 0 Z " fill="#E9BCC1" transform="translate(329,144)"/>
<path d="M0 0 C1.7634375 0.7115625 1.7634375 0.7115625 3.5625 1.4375 C10.18531727 3.68755971 17.06905055 3.73518111 24 4 C24 4.33 24 4.66 24 5 C21.4374282 5.02710123 18.87514635 5.04688771 16.3125 5.0625 C15.2306543 5.07506836 15.2306543 5.07506836 14.12695312 5.08789062 C10.28444618 5.10543632 6.73360474 4.93524221 3 4 C3 3.34 3 2.68 3 2 C2.01 2 1.02 2 0 2 C0 1.34 0 0.68 0 0 Z " fill="#3B769D" transform="translate(146,91)"/>
<path d="M0 0 C1.56629708 3.01970788 2.87625164 6.08650414 4.125 9.25 C4.47820312 10.14203125 4.83140625 11.0340625 5.1953125 11.953125 C5.46085937 12.62859375 5.72640625 13.3040625 6 14 C3.525 13.01 3.525 13.01 1 12 C1 10.68 1 9.36 1 8 C0.34 8 -0.32 8 -1 8 C-0.67 5.36 -0.34 2.72 0 0 Z " fill="#AD142A" transform="translate(260,239)"/>
<path d="M0 0 C0.60328125 0.33773437 1.2065625 0.67546875 1.828125 1.0234375 C2.62734375 1.46945313 3.4265625 1.91546875 4.25 2.375 C5.43335938 3.03628906 5.43335938 3.03628906 6.640625 3.7109375 C8.73914197 4.85747823 10.8536077 5.94649552 13 7 C9.05272412 7.17942163 6.4019487 7.09350689 3 5 C2.67 6.32 2.34 7.64 2 9 C1.34 6.03 0.68 3.06 0 0 Z " fill="#A52231" transform="translate(408,248)"/>
<path d="M0 0 C4.29 0.99 8.58 1.98 13 3 C9 6 9 6 6.875 5.8125 C5 5 5 5 3 3 C2.01 2.67 1.02 2.34 0 2 C0 1.34 0 0.68 0 0 Z " fill="#D32A2B" transform="translate(541,89)"/>
<path d="M0 0 C0.66 0.33 1.32 0.66 2 1 C1.34 1.825 0.68 2.65 0 3.5 C-2.61234126 7.34492481 -2.31334134 10.45655064 -2 15 C-4.39286884 12.60713116 -4.32050616 11.90552906 -4.375 8.625 C-4.31898675 5.14657747 -4.21688729 4.27788684 -2 1.4375 C-1.34 0.963125 -0.68 0.48875 0 0 Z " fill="#FCDBDF" transform="translate(425,197)"/>
<path d="M0 0 C1.22589844 0.01353516 1.22589844 0.01353516 2.4765625 0.02734375 C3.41628906 0.04474609 3.41628906 0.04474609 4.375 0.0625 C4.375 0.3925 4.375 0.7225 4.375 1.0625 C3.50488281 1.20945313 3.50488281 1.20945313 2.6171875 1.359375 C-2.72146432 2.38129515 -6.31385232 3.74623256 -10.625 7.0625 C-11.285 6.7325 -11.945 6.4025 -12.625 6.0625 C-5.38364553 -0.07690922 -5.38364553 -0.07690922 0 0 Z " fill="#AF3645" transform="translate(317.625,152.9375)"/>
<path d="M0 0 C0.66 0 1.32 0 2 0 C2 0.99 2 1.98 2 3 C2.66 3 3.32 3 4 3 C4.0825 3.94875 4.165 4.8975 4.25 5.875 C4.65074923 9.10461791 4.65074923 9.10461791 7.0625 10.375 C7.701875 10.58125 8.34125 10.7875 9 11 C8.34 11.66 7.68 12.32 7 13 C0 4.79310345 0 4.79310345 0 0 Z " fill="#AC2133" transform="translate(458,245)"/>
<path d="M0 0 C0.33 0.66 0.66 1.32 1 2 C2.65 2 4.3 2 6 2 C4.1875 5 4.1875 5 2 8 C1.01 8 0.02 8 -1 8 C-0.67 5.36 -0.34 2.72 0 0 Z " fill="#FCE4E8" transform="translate(408,192)"/>
<path d="M0 0 C0.33 1.32 0.66 2.64 1 4 C2.32 3.67 3.64 3.34 5 3 C2.42215154 5.64752004 0.08351902 7.94432065 -3 10 C-2.01 6.7 -1.02 3.4 0 0 Z " fill="#AB3240" transform="translate(359,193)"/>
<path d="M0 0 C4.42322197 1.35154005 6.51643884 3.09726104 9 7 C9.75 10.3125 9.75 10.3125 10 13 C9.34 12.67 8.68 12.34 8 12 C8 10.68 8 9.36 8 8 C7.01 7.67 6.02 7.34 5 7 C4.855625 6.360625 4.71125 5.72125 4.5625 5.0625 C4.19895007 2.79688294 4.19895007 2.79688294 1.9375 1.75 C1.298125 1.5025 0.65875 1.255 0 1 C0 0.67 0 0.34 0 0 Z " fill="#2C5BA8" transform="translate(170,43)"/>
<path d="M0 0 C0.8125 1.6875 0.8125 1.6875 1 4 C-1.1875 6.8125 -1.1875 6.8125 -4 9 C-6.3125 8.8125 -6.3125 8.8125 -8 8 C-6.50260417 6.79557292 -5.00520833 5.59114583 -3.5078125 4.38671875 C-1.74707893 2.87729455 -1.74707893 2.87729455 0 0 Z " fill="#D7F8F7" transform="translate(194,104)"/>
<path d="M0 0 C-0.66 0 -1.32 0 -2 0 C-2 0.66 -2 1.32 -2 2 C-7.28 2 -12.56 2 -18 2 C-18 1.67 -18 1.34 -18 1 C-17.15695313 0.93941406 -16.31390625 0.87882812 -15.4453125 0.81640625 C-14.34960938 0.73261719 -13.25390625 0.64882812 -12.125 0.5625 C-11.03445312 0.48128906 -9.94390625 0.40007812 -8.8203125 0.31640625 C-1.63306452 -0.48991935 -1.63306452 -0.48991935 0 0 Z " fill="#2394A6" transform="translate(176,95)"/>
<path d="M0 0 C2.475 0.495 2.475 0.495 5 1 C5.103125 1.639375 5.20625 2.27875 5.3125 2.9375 C5.539375 3.618125 5.76625 4.29875 6 5 C6.99 5.33 7.98 5.66 9 6 C8.67 7.32 8.34 8.64 8 10 C6.85157077 8.71064081 5.70633773 7.41843421 4.5625 6.125 C3.92441406 5.40570312 3.28632813 4.68640625 2.62890625 3.9453125 C1 2 1 2 0 0 Z " fill="#D7F4FB" transform="translate(182,24)"/>
<path d="M0 0 C-0.33 0.99 -0.66 1.98 -1 3 C-3.64 3 -6.28 3 -9 3 C-7.01532024 -0.96935951 -3.9567243 -1.41311582 0 0 Z " fill="#BB0323" transform="translate(354,170)"/>
<path d="M0 0 C2 2 2 2 3.4375 4.4375 C4.80163937 6.67468856 6.07324346 8.25674408 8 10 C6.35 9.67 4.7 9.34 3 9 C3 8.34 3 7.68 3 7 C2.01 6.67 1.02 6.34 0 6 C0 4.02 0 2.04 0 0 Z " fill="#FEDCDC" transform="translate(283,91)"/>
<path d="M0 0 C4.25491665 0.47276852 6.22542845 2.92547477 9 6 C9.33 6.66 9.66 7.32 10 8 C5.60316512 6.80086322 2.90159066 5.5711885 0 2 C0 1.34 0 0.68 0 0 Z " fill="#CA2929" transform="translate(341,91)"/>
<path d="M0 0 C1.65 0.33 3.3 0.66 5 1 C4.64989059 9.35010941 4.64989059 9.35010941 1.9375 12.0625 C1.298125 12.371875 0.65875 12.68125 0 13 C-0.66 12.34 -1.32 11.68 -2 11 C-1.0409375 10.7215625 -1.0409375 10.7215625 -0.0625 10.4375 C2.42126213 9.05753944 2.42126213 9.05753944 2.75 5.375 C2.8325 4.26125 2.915 3.1475 3 2 C2.01 1.67 1.02 1.34 0 1 C0 0.67 0 0.34 0 0 Z " fill="#F7CAC9" transform="translate(513,35)"/>
<path d="M0 0 C1.32 0.33 2.64 0.66 4 1 C3.195625 1.495 2.39125 1.99 1.5625 2.5 C-1.98088338 5.95695939 -1.7573941 8.14788209 -2 13 C-2.33 13 -2.66 13 -3 13 C-3 9.7 -3 6.4 -3 3 C-2.34 3 -1.68 3 -1 3 C-0.67 2.01 -0.34 1.02 0 0 Z " fill="#B02A3B" transform="translate(423,196)"/>
<path d="M0 0 C2.31 1.98 4.62 3.96 7 6 C3.37673261 7.2077558 2.35853631 6.54311128 -1 5 C-0.34 4.67 0.32 4.34 1 4 C0.67 2.68 0.34 1.36 0 0 Z " fill="#984046" transform="translate(134,98)"/>
<path d="M0 0 C-3.01887244 3.48331435 -5.56909529 4.79157144 -10 6 C-7.09167817 0.84433858 -5.91982852 -0.15578496 0 0 Z " fill="#0E6CA6" transform="translate(184,88)"/>
<path d="M0 0 C0.99 0.66 1.98 1.32 3 2 C-0.75 5 -0.75 5 -3 5 C-4.33783393 5.31478446 -5.67203709 5.64587656 -7 6 C-2.25 1.125 -2.25 1.125 0 0 Z " fill="#C1202B" transform="translate(131,40)"/>
<path d="M0 0 C1.1092007 4.43680282 0.86005602 5.92559158 -1 10 C-2.98 10.99 -2.98 10.99 -5 12 C-3.35 8.04 -1.7 4.08 0 0 Z " fill="#F5C9CE" transform="translate(299,243)"/>
<path d="M0 0 C2.31 0.33 4.62 0.66 7 1 C7.33 1.99 7.66 2.98 8 4 C8.66 4.33 9.32 4.66 10 5 C5.75354935 5 3.61475228 3.18249194 0 1 C0 0.67 0 0.34 0 0 Z " fill="#AD1C2F" transform="translate(427,229)"/>
<path d="M0 0 C1.5625 1.25 1.5625 1.25 3 3 C2.6875 5.1875 2.6875 5.1875 2 7 C1.01 6.67 0.02 6.34 -1 6 C-1.042721 4.33388095 -1.04063832 2.66617115 -1 1 C-0.67 0.67 -0.34 0.34 0 0 Z " fill="#B90523" transform="translate(358,143)"/>
<path d="M0 0 C0.33 0 0.66 0 1 0 C1.625 2.875 1.625 2.875 2 6 C1.34 6.66 0.68 7.32 0 8 C-0.99 8 -1.98 8 -3 8 C-1.125 2.25 -1.125 2.25 0 0 Z " fill="#16AAAD" transform="translate(196,72)"/>
<path d="M0 0 C0.33 0.66 0.66 1.32 1 2 C0.34938905 3.67299959 -0.32033324 5.33859237 -1 7 C-1.37593066 8.9924325 -1.71979545 10.9918674 -2 13 C-2.33 13 -2.66 13 -3 13 C-3.27429625 7.60550707 -3.36055646 4.48074195 0 0 Z " fill="#F3B2B2" transform="translate(235,68)"/>
<path d="M0 0 C2.64 0 5.28 0 8 0 C7.38125 0.2475 6.7625 0.495 6.125 0.75 C3.64931313 2.20628639 3.04874998 3.37812506 2 6 C1.34 4.02 0.68 2.04 0 0 Z " fill="#AA1627" transform="translate(336,191)"/>
<path d="M0 0 C0.99 0.33 1.98 0.66 3 1 C3 1.66 3 2.32 3 3 C2.34 3 1.68 3 1 3 C1 6.3 1 9.6 1 13 C0.67 13 0.34 13 0 13 C0 8.71 0 4.42 0 0 Z " fill="#5C6B85" transform="translate(129,73)"/>
<path d="M0 0 C4.29 0 8.58 0 13 0 C13 0.33 13 0.66 13 1 C12.24074219 1.06058594 11.48148437 1.12117188 10.69921875 1.18359375 C9.70535156 1.26738281 8.71148437 1.35117187 7.6875 1.4375 C6.70136719 1.51871094 5.71523438 1.59992187 4.69921875 1.68359375 C1.90624401 1.91812559 1.90624401 1.91812559 -1 3 C-0.67 2.01 -0.34 1.02 0 0 Z " fill="#FECDCE" transform="translate(405,52)"/>
<path d="M0 0 C0.33 0 0.66 0 1 0 C0.25 7.625 0.25 7.625 -2 11 C-2.28571429 3.57142857 -2.28571429 3.57142857 0 0 Z " fill="#F9D4DA" transform="translate(495,238)"/>
<path d="M0 0 C0.99 0.33 1.98 0.66 3 1 C3.33 2.98 3.66 4.96 4 7 C3.01 6.67 2.02 6.34 1 6 C0.67 4.02 0.34 2.04 0 0 Z " fill="#B32437" transform="translate(448,231)"/>
<path d="M0 0 C1.65 0 3.3 0 5 0 C5.33 1.98 5.66 3.96 6 6 C3.96166576 4.7260411 1.96147874 3.38938077 0 2 C0 1.34 0 0.68 0 0 Z " fill="#CF2D2F" transform="translate(117,91)"/>
</svg>
