<svg xmlns="http://www.w3.org/2000/svg" xmlns:xlink="http://www.w3.org/1999/xlink" id="Calque_1" width="298.01" height="62.62" viewBox="0 0 549.05 152" style="enable-background:new 0 0 298.01 62.62;" xml:space="preserve">
<style type="text/css">
	.st0{fill:#0080C9;}
	.st1{fill:#004388;}
	.st2{fill:#FFFFFF;}
</style>
<g>
	<rect x="14.5" y="12.21" class="st0" width="517.58" height="128.72"></rect>
	<rect x="14.5" y="126.45" class="st1" width="517.58" height="14.48"></rect>
	<polygon class="st2" points="35.75,37.88 35.75,105.39 49.22,105.39 49.22,75.26 66.07,75.26 66.07,64.63 49.12,64.63 49.12,48.78    69.83,48.78 71.75,37.88  "></polygon>
	<g>
		<path class="st2" d="M75.77,37.88H96.2c3.49,0,6.69,0.46,6.69,0.46s16.85,2.93,16.94,19.23c0.1,16.3-14.47,19.15-14.47,19.15    c9.16,9.98,17.69,28.66,17.69,28.66h-15.3c-15.21-31.96-19.41-28.3-19.41-28.3v28.3H75.69L75.77,37.88z M88.33,49.06v18.23h10.44    c0,0,7.51-0.27,7.14-9.07c-0.36-8.78-6.78-9.16-6.78-9.16H88.33z"></path>
	</g>
	<rect x="129.09" y="37.88" class="st2" width="13.65" height="67.5"></rect>
	<g>
		<path class="st2" d="M193.48,53l6.68-7.96c0,0-6.13-8.16-20.7-7.79c-14.57,0.36-29.41,8.24-29.41,34.34    c0,26.11,14.38,33.62,29.21,34.45c0,0,12.64,0.54,21.62-6.24v-31.6h-24.92L178,79.29h9.71v15.48c0,0-3.93,1.65-7.79,1.74    c0,0-16.12,2.48-16.12-24.92c0,0-2.19-23.4,16.48-23.9C190.37,47.41,193.48,53,193.48,53"></path>
	</g>
	<path class="st2" d="M205.48,105.39L227,37.88h13.92l20.89,67.5h-14.11l-4.57-15.75h-19.61l-4.57,15.75H205.48z M226.55,78.64   h13.84l-6.78-25.37L226.55,78.64z"></path>
	<rect x="263.01" y="69.67" class="st2" width="18.77" height="10.81"></rect>
	<g>
		<path class="st2" d="M290.75,37.88h26.56c0,0,16.77,0.46,17.32,16.86c0.36,11-10.54,15.2-10.54,15.2s13.1,2.02,13.02,16.76    c-0.14,19.7-19.15,18.68-19.15,18.68h-27.21V37.88z M304.04,76.44l0.02,17.57l11.88-0.08c0,0,6.5,0.27,6.42-8.42    c-0.08-7.97-6.69-9.08-6.69-9.08H304.04z M303.77,49.43v15.94h9.79c0,0,7.88,0.63,7.79-8.06c-0.08-7.97-7.05-7.87-7.05-7.87    H303.77z"></path>
	</g>
	<polygon class="st2" points="405.71,37.88 405.71,105.39 418.54,105.39 418.54,75.53 438.13,75.53 438.13,105.39 450.78,105.39    450.78,38.24 437.85,38.24 437.85,64.54 418.43,64.54 418.43,37.88  "></polygon>
	<polygon class="st2" points="462.96,105.39 475.23,105.39 474.59,57.76 495.11,105.39 508.29,105.39 508.29,38.24 495.57,38.24    497.29,83.41 477.34,38.24 463.05,38.24  "></polygon>
	<g>
		<path class="st2" d="M340.93,72.23c0-19.24,8.71-34.84,28.31-34.89c19.46-0.06,28.37,15.87,28.37,35.11    c0,19.24-9.67,34.54-28.37,34.57C350.5,107.05,340.93,91.47,340.93,72.23 M355.56,71.97c0,13.52,3.51,24.45,13.71,24.47    c9.96,0.01,13.45-10.74,13.45-24.26c0-13.52-3.19-24.73-13.45-24.69C358.67,47.53,355.56,58.45,355.56,71.97"></path>
	</g>
</g>
</svg>