<svg xmlns="http://www.w3.org/2000/svg" xmlns:xlink="http://www.w3.org/1999/xlink" id="Calque_1" x="0px" y="0px" viewBox="0 0 298.01 62.62" style="enable-background:new 0 0 298.01 62.62;" xml:space="preserve">
<style type="text/css">
	.st0{fill:#0080C9;}
	.st1{fill-rule:evenodd;clip-rule:evenodd;fill:#0080C9;}
</style>
<g>
	<polygon class="st0" points="71.26,57.22 96.35,56.48 102.98,12.21 148.73,12.21 142.1,60.17 177.5,12.21 226.94,12.21    178.24,74.19 213.66,141.32 159.06,141.32 136.93,93.37 130.29,141.32 83.06,141.32 88.97,94.84 63.88,95.58 57.98,141.32    13.71,141.32 33.63,12.21 76.42,12.21  "></polygon>
	<rect x="218.82" y="131.74" class="st0" width="329.79" height="9.59"></rect>
	<g>
		<path class="st0" d="M233.01,97.63c2.61,0,4.38-3.29,4.75-6.73c0.51-4.63-1.21-6.59-3.95-6.38l-1.41,13.04L233.01,97.63z     M234.71,126.02L231.64,104l-0.11,0.14c-0.23,2.59-0.43,5.19-0.7,7.79l-1.54,14.09h-9.87l5.75-52.87h9.54    c8.56,0,14.35,3.64,12.83,17.6c-0.63,5.82-2.94,11.01-7.1,13.25l4.95,22.02H234.71z"></path>
		<polygon class="st0" points="254.39,73.15 272.72,73.15 271.36,85.63 262.9,85.63 262.1,93 269.69,93 268.33,105.48     260.74,105.48 259.86,113.54 268.33,113.54 266.97,126.02 248.63,126.02   "></polygon>
		<polygon class="st0" points="272.77,126.02 278.53,73.15 295.94,73.15 294.57,85.64 287.03,85.64 286.21,93.28 293.26,93.28     291.9,105.76 284.84,105.76 282.63,126.02   "></polygon>
		<path class="st0" d="M309.62,97.63c2.62,0,4.38-3.29,4.75-6.73c0.51-4.63-1.22-6.59-3.95-6.38l-1.42,13.04L309.62,97.63z     M311.33,126.02L308.25,104l-0.11,0.14c-0.23,2.59-0.42,5.19-0.7,7.79l-1.53,14.09h-9.86l5.75-52.87h9.53    c8.56,0,14.36,3.64,12.83,17.6c-0.63,5.82-2.93,11.01-7.09,13.25l4.95,22.02H311.33z"></path>
		<polygon class="st0" points="325.25,126.02 331.01,73.15 340.88,73.15 335.12,126.02   "></polygon>
		<path class="st0" d="M370.52,95.45l-0.2,2.24c-1.42,13.04-4.92,29.24-16.33,29.24c-10.73,0-12.73-13.67-11.27-27.06    c1.43-13.11,6.44-27.63,17.12-27.63c5.9,0,9.72,5.4,11.01,13.04l-10.09,5.12c0.14-2.11-0.48-5.4-2.21-5.4    c-4.55,0-5.48,12.13-5.92,16.12c-0.27,3.78-1.46,13.04,2.36,13.04c2.61,0,3.92-4.49,4.21-7.57h-3.63l1.21-11.15H370.52z"></path>
		<polygon class="st0" points="377.35,73.15 395.68,73.15 394.31,85.63 385.86,85.63 385.06,93 392.64,93 391.29,105.48     383.7,105.48 382.82,113.54 391.28,113.54 389.92,126.02 371.59,126.02   "></polygon>
		<path class="st0" d="M409.31,97.63c2.61,0,4.37-3.29,4.75-6.73c0.5-4.63-1.22-6.59-3.95-6.38l-1.42,13.04L409.31,97.63z     M411,126.02L407.94,104l-0.11,0.14c-0.23,2.59-0.42,5.19-0.7,7.79l-1.54,14.09h-9.86l5.75-52.87H411    c8.56,0,14.36,3.64,12.84,17.6c-0.63,5.82-2.94,11.01-7.1,13.25l4.95,22.02H411z"></path>
		<path class="st0" d="M440.82,108l0.28-12.27c0.07-3.3,0.24-6.66,0.36-9.96h-0.09c-0.65,3.3-1.26,6.66-2.01,9.96L436.67,108H440.82    z M440.75,126.02l0.01-6.8h-6.62l-1.56,6.8h-10.16l14.5-52.87h12.05l1.98,52.87H440.75z"></path>
		<polygon class="st0" points="455.18,126.02 459.53,86.05 454.12,86.05 455.51,73.15 476.46,73.15 475.05,86.05 469.4,86.05     465.04,126.02   "></polygon>
		<polygon class="st0" points="474.67,126.02 480.42,73.15 490.29,73.15 484.53,126.02   "></polygon>
		<path class="st0" d="M504.51,113.61c3.72,0,5.04-10.73,5.39-14.02c0.35-3.3,1.38-14.02-2.34-14.02c-3.72,0-5.04,10.72-5.4,14.02    C501.81,102.88,500.79,113.61,504.51,113.61 M509.02,72.24c10.01,0,12.36,14.45,10.95,27.35c-1.4,12.9-6.9,27.35-16.91,27.35    c-10.01,0-12.35-14.45-10.95-27.35C493.51,86.69,499,72.24,509.02,72.24"></path>
		<path class="st0" d="M527.59,73.15h9.38l4.41,31.83l0.11-0.14c0.29-6.1,0.2-12.13,0.88-18.23l1.46-13.46h9.48l-5.76,52.87h-9.48    l-4.04-30.5l-0.11,0.14c-0.3,4.97-0.39,9.88-0.94,14.86l-1.69,15.5h-9.48L527.59,73.15z"></path>
		<path class="st0" d="M236.16,36.58c-5.6,0-10.16-4.56-10.16-10.16c0-5.61,4.56-10.17,10.16-10.17c5.6,0,10.16,4.56,10.16,10.17    C246.32,32.02,241.76,36.58,236.16,36.58z M236.16,17.75c-4.78,0-8.66,3.89-8.66,8.67c0,4.78,3.89,8.66,8.66,8.66    c4.78,0,8.66-3.88,8.66-8.66C244.82,21.64,240.93,17.75,236.16,17.75z"></path>
		<path class="st1" d="M234.29,27.1h0.37l4.04,5.86h1.82l-4.25-5.98c2.06-0.17,3.35-1.63,3.35-3.68c0-3.01-2.35-3.68-4.88-3.68    h-1.93v13.35h1.49V27.1z M234.29,20.99h0.44c1.79,0,3.4,0.21,3.4,2.41c0,2.07-1.7,2.38-3.38,2.38h-0.46V20.99z"></path>
		<path class="st0" d="M234.29,27.1h0.37l4.04,5.86h1.82l-4.25-5.98c2.06-0.17,3.35-1.63,3.35-3.68c0-3.01-2.35-3.68-4.88-3.68    h-1.93v13.35h1.49V27.1z M234.29,20.99h0.44c1.79,0,3.4,0.21,3.4,2.41c0,2.07-1.7,2.38-3.38,2.38h-0.46V20.99z"></path>
	</g>
</g>
</svg>