<svg xmlns="http://www.w3.org/2000/svg" xmlns:xlink="http://www.w3.org/1999/xlink" id="Calque_1" x="0px" y="0px" viewBox="0 0 484 152" style="enable-background:new 0 0 484 152;" xml:space="preserve">
<style type="text/css">
	.st0{fill:#C4053F;}
</style>
<g>
	<path class="st0" d="M395.16,134.19c-71.45,15.69-165.64-0.3-165.64-0.3s217.38,20.27,211.63-60.69   c-5.83-82.14-313.52-47.53-313.52-47.53c188.58-30.26,275.06-1.69,281.94-0.43c35.85,9.54,59.11,27.12,61.24,46.4   C476.54,107.02,427.64,127.05,395.16,134.19z"></path>
	<path class="st0" d="M271.28,117.02c-7.25,0-12.18-1.66-14.79-4.97c-2.61-3.31-3.07-8.32-0.9-15.08l12.5-38.2   c2.59-8.06,5.91-13.44,9.98-16.16c4.06-2.72,10.41-4.07,19.05-4.07H306c8.64,0,12.45,0.9,15.71,4.61c2.8,3.19,2.91,7.57,0.33,15.62   l-12.46,38.17c-2.17,6.76-4.53,12.36-9.26,15.67c-4.74,3.32-11.83,4.41-19.08,4.41H271.28z M311.59,57.58   c0.9-3.08,1.67-5.94,0.34-7.97c-0.98-1.51-2.42-1.98-5.14-2.2c-2.48-0.35-6.87-0.19-6.87-0.19c-3.77,0.11-6.07,0.8-7.95,2.32   c-1.89,1.52-2.87,3.11-4.45,8.01l-13.2,40.5c-1.22,3.78-1.37,6.43-0.45,7.96c0.91,1.51,3.74,2.47,8.25,2.46   c4.25,0,8.26-0.17,11.8-2.86c2.05-1.29,3.06-3.78,4.38-7.53L311.59,57.58z"></path>
	<path class="st0" d="M66.18,115.76l-43.95,0.01l24.96-76.1l18.61-0.02l-22.36,67.6h25.58L66.18,115.76z"></path>
	<path class="st0" d="M138.73,48.29c-0.02,0,2.84-8.61,2.84-8.61l-43.63,0.04l-24.95,76.04h43.54l2.86-8.52c0,0-23.25,0-25.17,0   c-0.08,0,4.55-14.03,9.61-29.29c10.02-0.01,21.9,0,21.89,0c-0.02,0,2.81-8.58,2.81-8.58s-11.46,0-21.85-0.01   c2.63-7.93,5.17-15.55,7.01-21.07C125.32,48.29,138.75,48.29,138.73,48.29z"></path>
	<polygon class="st0" points="253.51,39.64 236.96,90.62 230.04,39.65 211.81,39.67 187.04,115.77 205.27,115.77 221.89,64.81    228.81,115.74 228.8,115.76 239.38,115.77 264.12,39.64  "></polygon>
	<polygon class="st0" points="385.29,39.64 372,39.64 356.17,59.61 352.25,39.64 332.74,39.67 339.92,74.25 308.29,115.77    321.37,115.77 342.71,87.69 348.54,115.75 367.22,115.76 358.89,73.41  "></polygon>
	<path class="st0" d="M190.72,39.65l-16.55,50.98l-6.91-50.96l-18.23,0.01l-24.77,76.1h18.23l16.61-50.96c0,0,6.81,50.24,6.92,50.93   l-0.01,0.03l10.59,0l24.74-76.13H190.72z"></path>
	<g>
		<path class="st0" d="M433.29,136.43c0,2.76-2.26,5.02-5.02,5.02c-2.76,0-5.02-2.26-5.02-5.02c0-2.76,2.26-5.03,5.02-5.03    C431.04,131.4,433.29,133.67,433.29,136.43z M424.09,136.43c0,2.28,1.91,4.17,4.19,4.19c2.27-0.02,4.19-1.91,4.19-4.19    c0-2.28-1.92-4.19-4.19-4.19C426,132.24,424.09,134.15,424.09,136.43z M426.96,133.69h2.16c1.18,0,1.63,0.62,1.63,1.21    c0,1.12-0.71,1.47-1.31,1.76l0.89,2.29l-1.44,0.19l-0.67-2.21h-0.61l-0.44,2.12h-1.31L426.96,133.69z M427.81,136.13h0.47    c0.68,0,1.11-0.4,1.11-1.01c0-0.33-0.26-0.62-0.69-0.62h-0.55L427.81,136.13z"></path>
	</g>
</g>
</svg>